<svg width="15" height="15" viewBox="0 0 15 15" fill="none" xmlns="http://www.w3.org/2000/svg">
    <path d="M7.5 6.2L7.84116 5.83447L7.5 5.51606L7.15884 5.83447L7.5 6.2ZM1 1V0.5H0.5V1H1ZM14 1H14.5V0.5H14V1ZM14 14V14.5H14.5V14H14ZM1 14H0.5V14.5H1V14ZM4.12687 10.0322L7.84116 6.56553L7.15884 5.83447L3.44456 9.30114L4.12687 10.0322ZM7.15884 6.56553L10.8731 10.0322L11.5554 9.30114L7.84116 5.83447L7.15884 6.56553ZM1 1.5H14V0.5H1V1.5ZM13.5 1V14H14.5V1H13.5ZM14 13.5H1V14.5H14V13.5ZM1.5 14V1H0.5V14H1.5Z" fill="#282828"/>
</svg>