<svg width="40" height="40" viewBox="0 0 40 40" fill="none" xmlns="http://www.w3.org/2000/svg">
<g clip-path="url(#clip0)">
<path d="M39.3333 24H35.3333C34.9667 24 34.6667 24.3 34.6667 24.6667H32.6667C32.3 24.6667 32 24.9667 32 25.3333V25.45L29.3 25.9917L22.475 25.3333C22.3083 25.3167 22.15 25.3667 22.0167 25.4583L20.6167 26.5L19.0333 25.4417C18.9083 25.3583 18.7583 25.3167 18.6 25.3333L11.35 25.9917L8 25.4333V25.3333C8 24.9667 7.7 24.6667 7.33333 24.6667H5.33333C5.33333 24.3 5.03333 24 4.66667 24H0.666667C0.3 24 0 24.3 0 24.6667V36.6667C0 37.0333 0.3 37.3333 0.666667 37.3333H4.66667C5.03333 37.3333 5.33333 37.0333 5.33333 36.6667H7.33333C7.7 36.6667 8 36.3667 8 36H10.5417L20.4167 39.95C20.55 40 20.7 40.0083 20.8417 39.975L28.175 37.975C28.525 37.8833 28.7333 37.525 28.6417 37.175C28.6417 37.1667 28.6417 37.1583 28.6333 37.1583L32.0333 36.2C32.1167 36.475 32.375 36.6667 32.6583 36.6667H34.6583C34.6583 37.0333 34.9583 37.3333 35.325 37.3333H39.325C39.6917 37.3333 39.9917 37.0333 39.9917 36.6667V24.6667C40 24.3 39.7 24 39.3333 24ZM4 36H1.33333V25.3333H4V36ZM6.66667 35.3333H5.33333V26H6.66667V35.3333ZM20.7083 38.6333L10.9167 34.7167C10.8417 34.6833 10.75 34.6667 10.6667 34.6667H8V26.7833L11.225 27.3167C11.2833 27.325 11.3417 27.325 11.3917 27.325L18.4917 26.6833L19.4833 27.3417L17.6833 28.6833C16.6333 29.375 16.3417 30.7917 17.0333 31.8417C17.4583 32.4833 18.175 32.8667 18.9417 32.8667C19.4083 32.8667 19.8583 32.725 20.25 32.4667L20.6417 32.175L26.5833 37.0333L20.7083 38.6333ZM31.9917 34.825L27.5167 36.0833L21.7333 31.3417L22.8167 30.5333L22.0167 29.4667L19.4833 31.375C19.05 31.6667 18.4583 31.55 18.1667 31.1083C18.0417 30.925 17.9917 30.7083 18.0083 30.4833C18.0417 30.1917 18.2083 29.925 18.4583 29.7667L22.6083 26.6833L29.275 27.325C29.3417 27.3333 29.4083 27.325 29.4667 27.3167L32 26.8083V34.825H31.9917ZM34.6667 35.3333H33.3333V26H34.6667V35.3333ZM38.6667 36H36V25.3333H38.6667V36Z" fill="white"/>
<path d="M10.2637 36.7223L9.73828 37.9478L14.4027 39.9478L14.9282 38.7223L10.2637 36.7223Z" fill="white"/>
<path d="M15.3333 9.33333H9.33333V5.33333C9.33333 4.96667 9.03333 4.66667 8.66667 4.66667H6.66667V2C6.66667 1.63333 6.36667 1.33333 6 1.33333H5.33333V0H4V1.33333H3.33333C2.96667 1.33333 2.66667 1.63333 2.66667 2V4.66667H0.666667C0.3 4.66667 0 4.96667 0 5.33333V22C0 22.3667 0.3 22.6667 0.666667 22.6667H15.3333C15.7 22.6667 16 22.3667 16 22V10C16 9.63333 15.7 9.33333 15.3333 9.33333ZM4 2.66667H5.33333V4.66667H4V2.66667ZM8 21.3333H1.33333V6H8V21.3333ZM14.6667 12H13.3333V13.3333H14.6667V14.6667H13.3333V16H14.6667V21.3333H9.33333V10.6667H14.6667V12Z" fill="white"/>
<path d="M3.99996 10H2.66663V11.3333H3.99996V10Z" fill="white"/>
<path d="M6.66671 10H5.33337V11.3333H6.66671V10Z" fill="white"/>
<path d="M3.99996 12.6667H2.66663V14.0001H3.99996V12.6667Z" fill="white"/>
<path d="M6.66671 12.6667H5.33337V14.0001H6.66671V12.6667Z" fill="white"/>
<path d="M3.99996 15.3333H2.66663V16.6666H3.99996V15.3333Z" fill="white"/>
<path d="M12.0001 12H10.6667V13.3333H12.0001V12Z" fill="white"/>
<path d="M12.0001 14.6667H10.6667V16.0001H12.0001V14.6667Z" fill="white"/>
<path d="M3.99996 7.33325H2.66663V8.66659H3.99996V7.33325Z" fill="white"/>
<path d="M6.66671 7.33325H5.33337V8.66659H6.66671V7.33325Z" fill="white"/>
<path d="M28.6667 0V1C28.6667 1.55 28.2167 2 27.6667 2C26.375 2 25.3334 3.04167 25.3334 4.33333V5.33333H26.6667V4.33333C26.6667 3.78333 27.1167 3.33333 27.6667 3.33333C28.9584 3.33333 30 2.29167 30 1V0H28.6667Z" fill="white"/>
<path d="M39.7667 14.8252L35.1 10.8252C34.8167 10.5835 34.4 10.6168 34.1583 10.9002C34.0583 11.0168 34 11.1752 34 11.3335V12.7418L31.7667 10.8252C31.4833 10.5835 31.0667 10.6168 30.825 10.9002C30.725 11.0168 30.6667 11.1752 30.6667 11.3335V14.6668H29.3333V8.00016H30V6.66683H29.5167C29.75 6.25849 30.1917 6.00016 30.6667 6.00016C32.5083 6.00016 34 4.5085 34 2.66683V1.3335H32.6667V2.66683C32.6667 3.77516 31.775 4.66683 30.6667 4.66683C29.4583 4.67516 28.4 5.49183 28.0917 6.66683H24.6667V8.00016H25.3333V14.6668H24.6667C24.3 14.6668 24 14.9668 24 15.3335V22.0002C24 22.3668 24.3 22.6668 24.6667 22.6668H39.3333C39.7 22.6668 40 22.3668 40 22.0002V15.3335C40 15.1418 39.9167 14.9502 39.7667 14.8252ZM26.6667 8.00016H28V14.6668H26.6667V8.00016ZM38.6667 21.3335H25.3333V16.0002H31.3333C31.7 16.0002 32 15.7002 32 15.3335V12.7835L34.2333 14.7002C34.5167 14.9418 34.9333 14.9085 35.175 14.6252C35.275 14.5085 35.3333 14.3502 35.3333 14.1918V12.7835L38.6667 15.6418V21.3335Z" fill="white"/>
<path d="M34.6666 18.6665H33.3333V19.9998H34.6666V18.6665Z" fill="white"/>
<path d="M37.3333 18.6665H36V19.9998H37.3333V18.6665Z" fill="white"/>
<path d="M34.6666 16H33.3333V17.3333H34.6666V16Z" fill="white"/>
<path d="M37.3333 16H36V17.3333H37.3333V16Z" fill="white"/>
<path d="M28.0001 17.3333H26.6667V18.6666H28.0001V17.3333Z" fill="white"/>
<path d="M30.6666 17.3333H29.3333V18.6666H30.6666V17.3333Z" fill="white"/>
<path d="M20.6667 16.6666V15.3333H19.3333V16.6666H18V17.9999H19.3333V19.3333H20.6667V17.9999H22V16.6666H20.6667Z" fill="white"/>
</g>
<defs>
<clipPath id="clip0">
<rect width="40" height="40" fill="white"/>
</clipPath>
</defs>
</svg>
