<svg width="18" height="24" viewBox="0 0 18 24" fill="none" xmlns="http://www.w3.org/2000/svg">
    <path d="M9.00009 17.8677C8.81514 17.8677 8.66504 17.7062 8.66504 17.5072L8.66571 9.37631C8.66571 9.17735 8.81581 9.01587 9.00076 9.01587C9.18571 9.01587 9.33582 9.17735 9.33582 9.37631L9.33515 17.5072C9.33515 17.7062 9.18504 17.8677 9.00009 17.8677Z" fill="black"/>
    <path d="M11.8899 12.845C11.8041 12.845 11.7184 12.8097 11.6527 12.7398L8.99991 9.88589L6.34712 12.7398C6.21646 12.8804 6.00405 12.8804 5.87339 12.7398C5.74272 12.5992 5.74272 12.3707 5.87339 12.2301L8.76338 9.12105C8.89404 8.98048 9.10645 8.98048 9.23711 9.12105L12.1271 12.2301C12.2578 12.3707 12.2578 12.5992 12.1271 12.7398C12.0614 12.8097 11.9757 12.845 11.8899 12.845Z" fill="black"/>
    <path d="M16.3247 24H1.67516C0.75181 24 0 23.1919 0 22.1978V1.80218C0 0.808098 0.75181 0 1.67516 0H12.3137C12.4987 0 12.6488 0.161475 12.6488 0.360436C12.6488 0.559397 12.4987 0.720872 12.3137 0.720872H1.67516C1.12101 0.720872 0.670062 1.20602 0.670062 1.80218V22.1978C0.670062 22.794 1.12101 23.2791 1.67516 23.2791H16.3247C16.8789 23.2791 17.3298 22.794 17.3298 22.1978V6.27447C17.3298 6.07551 17.4799 5.91404 17.6648 5.91404C17.8498 5.91404 17.9999 6.07551 17.9999 6.27447V22.1985C17.9999 23.1919 17.2487 24 16.3247 24Z" fill="black"/>
    <path d="M17.6646 6.63483H12.3135C12.1286 6.63483 11.9785 6.47336 11.9785 6.27439V0.516692C11.9785 0.317728 12.1286 0.15625 12.3135 0.15625C12.4985 0.15625 12.6486 0.317728 12.6486 0.516692V5.91323H17.6646C17.8495 5.91323 17.9996 6.07471 17.9996 6.27367C17.9996 6.47264 17.8502 6.63483 17.6646 6.63483Z" fill="black"/>
    <path d="M17.6646 6.63472C17.5775 6.63472 17.4904 6.59795 17.4248 6.52587L12.0737 0.612746C11.945 0.470739 11.9477 0.241509 12.0804 0.103106C12.2124 -0.0360182 12.4248 -0.0324139 12.5541 0.110314L17.9052 6.02344C18.0339 6.16544 18.0312 6.39467 17.8985 6.53308C17.8335 6.60084 17.7491 6.63472 17.6646 6.63472Z" fill="black"/>
</svg>
