<svg width="51" height="51" viewBox="0 0 51 51" fill="none" xmlns="http://www.w3.org/2000/svg">
<g clip-path="url(#clip0)">
<path d="M13.1613 37.8386H4.93548C2.2135 37.8386 0 40.0521 0 42.7741V50.1773C0 50.6324 0.368715 50.9999 0.822581 50.9999H17.2742C17.7281 50.9999 18.0968 50.6324 18.0968 50.1773V42.7741C18.0968 40.0521 15.8833 37.8386 13.1613 37.8386ZM4.93548 39.4838H13.1613C14.9759 39.4838 16.4516 40.9594 16.4516 42.7741H1.64516C1.64516 40.9594 3.12083 39.4838 4.93548 39.4838ZM16.4516 44.4193V46.0644H1.64516V44.4193H16.4516ZM1.64516 49.3548V47.7096H16.4516V49.3548H1.64516Z" fill="#427C8A"/>
<path d="M42.7741 8.22581C43.2272 8.22581 43.5967 8.59533 43.5967 9.04839V10.6935C43.5967 12.0539 44.7041 13.1613 46.0645 13.1613C47.4248 13.1613 48.5322 12.0539 48.5322 10.6935V7.40323C48.5322 6.04283 47.4248 4.93548 46.0645 4.93548C45.6114 4.93548 45.2419 4.56597 45.2419 4.1129V2.46774C45.2419 1.10735 44.1345 0 42.7741 0C41.4137 0 40.3064 1.10735 40.3064 2.46774V5.75806C40.3064 7.11846 41.4137 8.22581 42.7741 8.22581ZM41.9516 2.46774C41.9516 2.01468 42.3211 1.64516 42.7741 1.64516C43.2272 1.64516 43.5967 2.01468 43.5967 2.46774V4.1129C43.5967 5.47329 44.7041 6.58065 46.0645 6.58065C46.5175 6.58065 46.887 6.95016 46.887 7.40323V10.6935C46.887 11.1466 46.5175 11.5161 46.0645 11.5161C45.6114 11.5161 45.2419 11.1466 45.2419 10.6935V9.04839C45.2419 7.688 44.1345 6.58065 42.7741 6.58065C42.3211 6.58065 41.9516 6.21113 41.9516 5.75806V2.46774Z" fill="#427C8A"/>
<path d="M31.258 8.22581C31.7111 8.22581 32.0806 8.59533 32.0806 9.04839V10.6935C32.0806 12.0539 33.188 13.1613 34.5483 13.1613C35.9087 13.1613 37.0161 12.0539 37.0161 10.6935V7.40323C37.0161 6.04283 35.9087 4.93548 34.5483 4.93548C34.0953 4.93548 33.7258 4.56597 33.7258 4.1129V2.46774C33.7258 1.10735 32.6184 0 31.258 0C29.8976 0 28.7903 1.10735 28.7903 2.46774V5.75806C28.7903 7.11846 29.8976 8.22581 31.258 8.22581ZM30.4354 2.46774C30.4354 2.01468 30.805 1.64516 31.258 1.64516C31.7111 1.64516 32.0806 2.01468 32.0806 2.46774V4.1129C32.0806 5.47329 33.188 6.58065 34.5483 6.58065C35.0014 6.58065 35.3709 6.95016 35.3709 7.40323V10.6935C35.3709 11.1466 35.0014 11.5161 34.5483 11.5161C34.0953 11.5161 33.7258 11.1466 33.7258 10.6935V9.04839C33.7258 7.688 32.6184 6.58065 31.258 6.58065C30.805 6.58065 30.4354 6.21113 30.4354 5.75806V2.46774Z" fill="#427C8A"/>
<path d="M50.1774 23.8547C50.6313 23.8547 51 23.486 51 23.0321V19.7418C51 19.2879 50.6313 18.9192 50.1774 18.9192H49.3548V18.0966C49.3548 16.7363 48.2475 15.6289 46.8871 15.6289H45.2419C43.8816 15.6289 42.7742 16.7363 42.7742 18.0966V18.9192H41.9516C41.4978 18.9192 41.129 19.2879 41.129 19.7418V23.0321C41.129 23.486 41.4978 23.8547 41.9516 23.8547H42.7742V26.3225H41.9516C41.4978 26.3225 41.129 26.69 41.129 27.145V30.4354C41.129 30.8904 41.4978 31.2579 41.9516 31.2579H42.7742V32.9031H37.8387V31.2579H38.6613C39.1152 31.2579 39.4839 30.8904 39.4839 30.4354V27.145C39.4839 26.69 39.1152 26.3225 38.6613 26.3225H37.8387V23.8547H38.6613C39.1152 23.8547 39.4839 23.486 39.4839 23.0321V19.7418C39.4839 19.2879 39.1152 18.9192 38.6613 18.9192H37.8387V18.0966C37.8387 16.7363 36.7314 15.6289 35.371 15.6289H33.7258C32.3654 15.6289 31.2581 16.7363 31.2581 18.0966V18.9192H30.4355C29.9816 18.9192 29.6129 19.2879 29.6129 19.7418V23.0321C29.6129 23.486 29.9816 23.8547 30.4355 23.8547H31.2581V26.3225H30.4355C29.9816 26.3225 29.6129 26.69 29.6129 27.145V30.4354C29.6129 30.8904 29.9816 31.2579 30.4355 31.2579H31.2581V32.9031H20.5645C20.1107 32.9031 19.7419 33.2706 19.7419 33.7257V50.1773C19.7419 50.6324 20.1107 50.9999 20.5645 50.9999H50.1774C50.6313 50.9999 51 50.6324 51 50.1773V33.7257C51 33.2706 50.6313 32.9031 50.1774 32.9031H49.3548V31.2579H50.1774C50.6313 31.2579 51 30.8904 51 30.4354V27.145C51 26.69 50.6313 26.3225 50.1774 26.3225H49.3548V23.8547H50.1774ZM44.4194 18.0966C44.4194 17.6436 44.7889 17.2741 45.2419 17.2741H46.8871C47.3402 17.2741 47.7097 17.6436 47.7097 18.0966V18.9192H44.4194V18.0966ZM42.7742 20.5644H49.3548V22.2096H42.7742V20.5644ZM32.9032 18.0966C32.9032 17.6436 33.2728 17.2741 33.7258 17.2741H35.371C35.824 17.2741 36.1936 17.6436 36.1936 18.0966V18.9192H32.9032V18.0966ZM31.2581 20.5644H37.8387V22.2096H31.2581V20.5644ZM32.9032 23.8547H36.1936V26.3225H32.9032V23.8547ZM31.2581 27.9676H37.8387V29.6128H31.2581V27.9676ZM32.9032 31.2579H36.1936V32.9031H32.9032V31.2579ZM49.3548 49.3547H21.3871V34.5483H49.3548V49.3547ZM47.7097 32.9031H44.4194V31.2579H47.7097V32.9031ZM49.3548 29.6128H42.7742V27.9676H49.3548V29.6128ZM47.7097 26.3225H44.4194V23.8547H47.7097V26.3225Z" fill="#427C8A"/>
<path d="M43.5968 41.1291H46.8871C47.3409 41.1291 47.7097 40.7616 47.7097 40.3065V37.0162C47.7097 36.5611 47.3409 36.1936 46.8871 36.1936H43.5968C43.1429 36.1936 42.7742 36.5611 42.7742 37.0162V40.3065C42.7742 40.7616 43.1429 41.1291 43.5968 41.1291ZM44.4193 37.8388H46.0645V39.4839H44.4193V37.8388Z" fill="#427C8A"/>
<path d="M43.5968 47.7097H46.8871C47.3409 47.7097 47.7097 47.3421 47.7097 46.8871V43.5968C47.7097 43.1417 47.3409 42.7742 46.8871 42.7742H43.5968C43.1429 42.7742 42.7742 43.1417 42.7742 43.5968V46.8871C42.7742 47.3421 43.1429 47.7097 43.5968 47.7097ZM44.4193 44.4193H46.0645V46.0645H44.4193V44.4193Z" fill="#427C8A"/>
<path d="M37.0162 41.1291H40.3065C40.7604 41.1291 41.1291 40.7616 41.1291 40.3065V37.0162C41.1291 36.5611 40.7604 36.1936 40.3065 36.1936H37.0162C36.5623 36.1936 36.1936 36.5611 36.1936 37.0162V40.3065C36.1936 40.7616 36.5623 41.1291 37.0162 41.1291ZM37.8388 37.8388H39.4839V39.4839H37.8388V37.8388Z" fill="#427C8A"/>
<path d="M37.0162 47.7097H40.3065C40.7604 47.7097 41.1291 47.3421 41.1291 46.8871V43.5968C41.1291 43.1417 40.7604 42.7742 40.3065 42.7742H37.0162C36.5623 42.7742 36.1936 43.1417 36.1936 43.5968V46.8871C36.1936 47.3421 36.5623 47.7097 37.0162 47.7097ZM37.8388 44.4193H39.4839V46.0645H37.8388V44.4193Z" fill="#427C8A"/>
<path d="M30.4355 41.1291H33.7258C34.1797 41.1291 34.5484 40.7616 34.5484 40.3065V37.0162C34.5484 36.5611 34.1797 36.1936 33.7258 36.1936H30.4355C29.9816 36.1936 29.6129 36.5611 29.6129 37.0162V40.3065C29.6129 40.7616 29.9816 41.1291 30.4355 41.1291ZM31.2581 37.8388H32.9032V39.4839H31.2581V37.8388Z" fill="#427C8A"/>
<path d="M30.4355 47.7097H33.7258C34.1797 47.7097 34.5484 47.3421 34.5484 46.8871V43.5968C34.5484 43.1417 34.1797 42.7742 33.7258 42.7742H30.4355C29.9816 42.7742 29.6129 43.1417 29.6129 43.5968V46.8871C29.6129 47.3421 29.9816 47.7097 30.4355 47.7097ZM31.2581 44.4193H32.9032V46.0645H31.2581V44.4193Z" fill="#427C8A"/>
<path d="M23.8548 41.1291H27.1451C27.599 41.1291 27.9677 40.7616 27.9677 40.3065V37.0162C27.9677 36.5611 27.599 36.1936 27.1451 36.1936H23.8548C23.4009 36.1936 23.0322 36.5611 23.0322 37.0162V40.3065C23.0322 40.7616 23.4009 41.1291 23.8548 41.1291ZM24.6774 37.8388H26.3226V39.4839H24.6774V37.8388Z" fill="#427C8A"/>
<path d="M23.8548 47.7097H27.1451C27.599 47.7097 27.9677 47.3421 27.9677 46.8871V43.5968C27.9677 43.1417 27.599 42.7742 27.1451 42.7742H23.8548C23.4009 42.7742 23.0322 43.1417 23.0322 43.5968V46.8871C23.0322 47.3421 23.4009 47.7097 23.8548 47.7097ZM24.6774 44.4193H26.3226V46.0645H24.6774V44.4193Z" fill="#427C8A"/>
<path d="M9.87098 11.5161H10.2542C10.3883 11.9407 10.557 12.3544 10.7602 12.754L10.112 13.4023C9.79025 13.724 9.79025 14.2437 10.112 14.5655L12.5797 17.0332C12.9014 17.3549 13.4212 17.3549 13.7429 17.0332L14.3912 16.3849C14.7908 16.5882 15.2045 16.7569 15.629 16.891V17.2742C15.629 17.7281 15.9978 18.0968 16.4516 18.0968H19.742C20.1958 18.0968 20.5645 17.7281 20.5645 17.2742V16.891C20.9891 16.7569 21.4028 16.5882 21.8016 16.3849L22.4507 17.0332C22.7724 17.3549 23.2921 17.3549 23.6139 17.0332L26.0816 14.5655C26.2362 14.4116 26.3226 14.202 26.3226 13.9839C26.3226 13.7658 26.2362 13.5561 26.0816 13.4023L25.4333 12.754C25.6366 12.3544 25.8053 11.9407 25.9394 11.5161H26.3226C26.7765 11.5161 27.1452 11.1474 27.1452 10.6935V7.40323C27.1452 6.94936 26.7765 6.58065 26.3226 6.58065H25.9394C25.8053 6.1561 25.6366 5.7424 25.4333 5.34356L26.0816 4.69449C26.4033 4.37277 26.4033 3.85304 26.0816 3.53131L23.6139 1.06357C23.2921 0.741849 22.7724 0.741849 22.4507 1.06357L21.8016 1.71184C21.4028 1.5086 20.9891 1.33991 20.5645 1.20576V0.822581C20.5645 0.368715 20.1958 0 19.742 0H16.4516C15.9978 0 15.629 0.368715 15.629 0.822581V1.20576C15.2045 1.33991 14.7908 1.5086 14.3912 1.71184L13.7429 1.06357C13.5891 0.908936 13.3794 0.822581 13.1613 0.822581C12.9432 0.822581 12.7335 0.908936 12.5797 1.06357L10.112 3.53131C9.79025 3.85304 9.79025 4.37277 10.112 4.69449L10.7602 5.34356C10.557 5.7424 10.3883 6.1561 10.2542 6.58065H9.87098C9.41712 6.58065 9.0484 6.94936 9.0484 7.40323V10.6935C9.0484 11.1474 9.41712 11.5161 9.87098 11.5161ZM10.6936 8.22581H10.8827C11.2667 8.22581 11.6001 7.95991 11.6848 7.58598C11.8411 6.89915 12.1094 6.24085 12.4825 5.62994C12.6809 5.30581 12.6307 4.88849 12.3624 4.61979L11.8567 4.1129L13.1613 2.80915L13.6674 3.31482C13.9361 3.58393 14.3534 3.63414 14.6771 3.43492C15.2893 3.06178 15.9476 2.79348 16.6336 2.63724C17.0083 2.55249 17.2742 2.21952 17.2742 1.83514V1.64516H18.9194V1.83514C18.9194 2.21952 19.1853 2.55249 19.56 2.63724C20.2468 2.79268 20.9051 3.06178 21.5152 3.43492C21.841 3.63333 22.2575 3.58393 22.5262 3.31482L23.0323 2.80834L24.3368 4.1129L23.8312 4.61898C23.5621 4.88769 23.5126 5.305 23.7111 5.62994C24.0842 6.24085 24.3525 6.89835 24.5087 7.58517C24.5927 7.95991 24.9257 8.22581 25.31 8.22581H25.5V9.87097H25.31C24.9257 9.87097 24.5927 10.1369 24.5079 10.5116C24.3525 11.1976 24.0834 11.8567 23.7103 12.468C23.5118 12.7918 23.5621 13.2099 23.8304 13.4778L24.336 13.9839L23.0323 15.2884L22.5262 14.7828C22.2583 14.5145 21.8402 14.4634 21.5164 14.6627C20.9051 15.0358 20.2468 15.3041 19.56 15.4603C19.1853 15.5451 18.9194 15.8785 18.9194 16.2624V16.4516H17.2742V16.2624C17.2742 15.8785 17.0083 15.5451 16.6344 15.4603C15.9476 15.3041 15.2893 15.0358 14.6771 14.6627C14.3526 14.4626 13.9353 14.5136 13.6674 14.7828L13.1613 15.2884L11.8567 13.9839L12.3624 13.4778C12.6315 13.2099 12.6809 12.7926 12.4825 12.468C12.1094 11.8559 11.8411 11.1976 11.6848 10.5108C11.6001 10.1369 11.2667 9.87097 10.8827 9.87097H10.6936V8.22581Z" fill="#427C8A"/>
<path d="M18.0968 13.9838C20.8188 13.9838 23.0323 11.7703 23.0323 9.04828C23.0323 6.32629 20.8188 4.11279 18.0968 4.11279C15.3748 4.11279 13.1613 6.32629 13.1613 9.04828C13.1613 11.7703 15.3748 13.9838 18.0968 13.9838ZM18.0968 5.75795C19.9115 5.75795 21.3871 7.23362 21.3871 9.04828C21.3871 10.8629 19.9115 12.3386 18.0968 12.3386C16.2821 12.3386 14.8065 10.8629 14.8065 9.04828C14.8065 7.23362 16.2821 5.75795 18.0968 5.75795Z" fill="#427C8A"/>
<path d="M17.2742 24.6773H16.891C16.7569 24.2528 16.5882 23.8391 16.3849 23.4402L17.0332 22.7912C17.3549 22.4695 17.3549 21.9497 17.0332 21.628L14.5655 19.1603C14.2437 18.8385 13.724 18.8385 13.4023 19.1603L12.7532 19.8085C12.3544 19.6053 11.9407 19.4366 11.5161 19.3024V18.9193C11.5161 18.4654 11.1474 18.0967 10.6935 18.0967H7.40322C6.94936 18.0967 6.58064 18.4654 6.58064 18.9193V19.3024C6.1561 19.4366 5.7424 19.6053 5.34276 19.8085L4.69449 19.1603C4.54066 19.0056 4.331 18.9193 4.1129 18.9193C3.89481 18.9193 3.68514 19.0056 3.53131 19.1603L1.06357 21.628C0.741849 21.9497 0.741849 22.4695 1.06357 22.7912L1.71184 23.4402C1.5086 23.8391 1.33991 24.2528 1.20576 24.6773H0.822581C0.368715 24.6773 0 25.046 0 25.4999V28.7902C0 29.2453 0.368715 29.6128 0.822581 29.6128H1.20576C1.33991 30.0382 1.5086 30.4519 1.71184 30.8507L1.06357 31.499C0.741849 31.8207 0.741849 32.3404 1.06357 32.6621L3.53131 35.1299C3.85303 35.4516 4.37277 35.4516 4.69449 35.1299L5.34356 34.4816C5.7424 34.684 6.1561 34.8535 6.58064 34.9869V35.3709C6.58064 35.8259 6.94936 36.1935 7.40322 36.1935H10.6935C11.1474 36.1935 11.5161 35.8259 11.5161 35.3709V34.9869C11.9407 34.8535 12.3544 34.684 12.754 34.4816L13.4023 35.1299C13.5561 35.2845 13.7658 35.3709 13.9839 35.3709C14.202 35.3709 14.4116 35.2845 14.5655 35.1299L17.0332 32.6621C17.3549 32.3404 17.3549 31.8207 17.0332 31.499L16.3849 30.8507C16.5882 30.4519 16.7569 30.0382 16.891 29.6128H17.2742C17.7281 29.6128 18.0968 29.2453 18.0968 28.7902V25.4999C18.0968 25.046 17.7281 24.6773 17.2742 24.6773ZM16.4516 27.9676H16.2624C15.8785 27.9676 15.5451 28.2335 15.4603 28.6075C15.3041 29.2951 15.035 29.9542 14.6627 30.5635C14.4642 30.8885 14.5145 31.3058 14.7828 31.5745L15.2884 32.0805L13.9839 33.3851L13.4778 32.8794C13.2099 32.6103 12.7926 32.5609 12.468 32.7593C11.8567 33.1325 11.1984 33.4008 10.5108 33.5578C10.1369 33.6418 9.87097 33.9751 9.87097 34.3591V34.5483H8.22581V34.3591C8.22581 33.9751 7.95991 33.6426 7.58598 33.557C6.89915 33.4008 6.24005 33.1317 5.62994 32.7585C5.30581 32.5609 4.88769 32.6095 4.61898 32.8786L4.1129 33.3851L2.80834 32.0805L3.31402 31.5745C3.58313 31.3066 3.63253 30.8885 3.43411 30.5635C3.06178 29.9534 2.79348 29.2951 2.63724 28.6075C2.55249 28.2335 2.21952 27.9676 1.83514 27.9676H1.64516V26.3225H1.83434C2.21832 26.3225 2.55169 26.0566 2.63644 25.6827C2.79268 24.9958 3.06098 24.3375 3.43411 23.7266C3.63253 23.4025 3.58232 22.9852 3.31402 22.7165L2.80834 22.2096L4.1129 20.9058L4.61898 21.4115C4.88688 21.6806 5.30581 21.7316 5.62873 21.5316C6.24085 21.1585 6.89915 20.8902 7.58517 20.7339C7.95991 20.6492 8.22581 20.3162 8.22581 19.9318V19.7418H9.87097V19.9318C9.87097 20.3162 10.1369 20.6492 10.5116 20.7339C11.1984 20.8894 11.8567 21.1585 12.4668 21.5316C12.7926 21.7308 13.2091 21.6806 13.4778 21.4115L13.9839 20.905L15.2884 22.2096L14.7828 22.7157C14.5136 22.9844 14.4642 23.4017 14.6627 23.7266C15.0358 24.3375 15.3041 24.995 15.4603 25.6819C15.5443 26.0566 15.8773 26.3225 16.2616 26.3225H16.4516V27.9676Z" fill="#427C8A"/>
<path d="M9.0484 22.2097C6.32641 22.2097 4.11292 24.4232 4.11292 27.1452C4.11292 29.8672 6.32641 32.0807 9.0484 32.0807C11.7704 32.0807 13.9839 29.8672 13.9839 27.1452C13.9839 24.4232 11.7704 22.2097 9.0484 22.2097ZM9.0484 30.4355C7.23374 30.4355 5.75808 28.9599 5.75808 27.1452C5.75808 25.3305 7.23374 23.8549 9.0484 23.8549C10.8631 23.8549 12.3387 25.3305 12.3387 27.1452C12.3387 28.9599 10.8631 30.4355 9.0484 30.4355Z" fill="#427C8A"/>
<path d="M23.0323 26.3225H19.7419V27.9677H23.8548C24.3087 27.9677 24.6774 27.6001 24.6774 27.1451V18.0967H23.0323V26.3225Z" fill="#427C8A"/>
<path d="M4.11287 9.87099H7.4032V8.22583H3.29029C2.83643 8.22583 2.46771 8.59455 2.46771 9.04841V18.0968H4.11287V9.87099Z" fill="#427C8A"/>
</g>
<defs>
<clipPath id="clip0">
<rect width="51" height="51" fill="white"/>
</clipPath>
</defs>
</svg>
