<svg width="40" height="40" viewBox="0 0 40 40" fill="none" xmlns="http://www.w3.org/2000/svg">
<g clip-path="url(#clip0)">
<path d="M9.05677 1.86304H7.76518C7.44425 1.86304 7.1781 2.12918 7.1781 2.45012C7.1781 2.77106 7.43642 3.0372 7.76518 3.0372H9.05677C9.37771 3.0372 9.64385 2.77106 9.64385 2.45012C9.64385 2.12918 9.37771 1.86304 9.05677 1.86304Z" fill="white"/>
<path d="M12.2897 1.86304H10.9981C10.6772 1.86304 10.411 2.12918 10.411 2.45012C10.411 2.77106 10.6772 3.0372 10.9981 3.0372H12.2897C12.6106 3.0372 12.8768 2.77106 12.8768 2.45012C12.8768 2.12918 12.6184 1.86304 12.2897 1.86304Z" fill="white"/>
<path d="M15.5303 1.86304H14.2387C13.9178 1.86304 13.6516 2.12918 13.6516 2.45012C13.6516 2.77106 13.9178 3.0372 14.2387 3.0372H15.5303C15.8512 3.0372 16.1174 2.77106 16.1174 2.45012C16.1174 2.12918 15.8512 1.86304 15.5303 1.86304Z" fill="white"/>
<path d="M27.8199 6.39526H12.2896C11.9687 6.39526 11.7025 6.66141 11.7025 6.98235V9.57335C11.7025 9.89429 11.9687 10.1604 12.2896 10.1604H27.8199C28.1409 10.1604 28.407 9.89429 28.407 9.57335V6.98235C28.407 6.65358 28.1487 6.39526 27.8199 6.39526ZM27.2407 8.97843H12.8767V7.5616H27.2407V8.97843Z" fill="white"/>
<path d="M23.9375 11.5693H21.3465C21.0255 11.5693 20.7594 11.8277 20.7594 12.1564C20.7594 12.4774 21.0255 12.7435 21.3465 12.7435H23.9375C24.2584 12.7435 24.5246 12.4774 24.5246 12.1564C24.5246 11.8355 24.2662 11.5693 23.9375 11.5693Z" fill="white"/>
<path d="M20.0548 25.8081C16.8768 25.8081 14.2936 28.3913 14.2936 31.5694C14.2936 34.7474 16.8768 37.3306 20.0548 37.3306C23.2329 37.3306 25.8161 34.7474 25.8161 31.5694C25.8239 28.3913 23.2329 25.8081 20.0548 25.8081ZM20.0548 36.1643C17.5265 36.1643 15.4599 34.1056 15.4599 31.5694C15.4599 29.0332 17.5186 26.9744 20.0548 26.9744C22.591 26.9744 24.6498 29.0332 24.6498 31.5694C24.6498 34.1056 22.591 36.1643 20.0548 36.1643Z" fill="white"/>
<path d="M22.8651 30.3796L21.2917 30.1526L20.5872 28.7279C20.4854 28.5244 20.2819 28.3992 20.0627 28.3992C19.8435 28.3992 19.6322 28.5244 19.5383 28.7279L18.8338 30.1526L17.2604 30.3796C17.0412 30.4109 16.8533 30.5675 16.7907 30.7788C16.7203 30.9902 16.7829 31.225 16.9394 31.3816L18.0823 32.4931L17.8161 34.0587C17.777 34.2778 17.8709 34.497 18.051 34.6301C18.231 34.7632 18.4737 34.7788 18.6694 34.6771L20.0784 33.9334L21.4874 34.6771C21.5735 34.724 21.6674 34.7475 21.7614 34.7475C21.8866 34.7475 22.004 34.7084 22.1058 34.6379C22.2858 34.5048 22.3797 34.2857 22.3406 34.0665L22.0745 32.5009L23.2173 31.3894C23.3739 31.2328 23.4365 30.998 23.366 30.7866C23.2643 30.5675 23.0842 30.4109 22.8651 30.3796ZM21.0099 31.8669C20.869 32 20.8064 32.1956 20.8377 32.3835L20.9551 33.088L20.321 32.7592C20.2349 32.7123 20.141 32.6888 20.0471 32.6888C19.9531 32.6888 19.8592 32.7123 19.7731 32.7592L19.139 33.088L19.2565 32.3835C19.2878 32.1956 19.2252 32 19.0842 31.8669L18.5754 31.3659L19.2799 31.2641C19.4678 31.2328 19.6322 31.1154 19.7183 30.9432L20.0314 30.3013L20.3445 30.9432C20.4306 31.1154 20.595 31.2328 20.7829 31.2641L21.4874 31.3659L21.0099 31.8669Z" fill="white"/>
<path d="M34.8805 10.7318V1.8003C34.8805 0.767032 34.0351 -0.0783691 33.0019 -0.0783691H7.11536C6.0821 -0.0783691 5.23669 0.767032 5.23669 1.8003V12.4774V27.679C5.23669 28.7122 6.0821 29.5576 7.11536 29.5576H11.9529C11.7964 30.1995 11.7103 30.8727 11.7103 31.5616C11.7103 36.1643 15.4598 39.9138 20.0625 39.9138C24.6653 39.9138 28.4148 36.1643 28.4148 31.5616C28.4148 30.8727 28.3287 30.1995 28.1721 29.5576H33.0097C34.043 29.5576 34.8884 28.7122 34.8884 27.679V12.4774V10.7318H34.8805ZM6.40303 10.5518L10.3404 12.6731C10.3404 12.6731 10.3404 12.6731 10.3482 12.6731L18.4813 17.0488L20.3208 18.0351H17.6124L15.2954 16.814L9.98033 14.0116L6.40303 12.1252V10.5518ZM12.9549 12.7435H18.1839V15.5537L12.9549 12.7435ZM18.7631 20.634H18.0586V19.2171H22.0664V20.634H21.3619C21.3619 20.634 21.3619 20.634 21.3541 20.634H18.7631ZM20.767 21.8003V23.2484C20.5322 23.2328 20.2974 23.2171 20.0625 23.2171C19.8277 23.2171 19.585 23.225 19.358 23.2484V21.8003H20.767ZM12.6496 16.7435H10.2856V15.4989L12.6496 16.7435ZM7.11536 28.3991C6.72397 28.3991 6.40303 28.0782 6.40303 27.6868V13.448L9.11145 14.8805V17.3306C9.11145 17.6516 9.37759 17.9177 9.69853 17.9177H14.8649L16.8766 18.9823V21.2132C16.8766 21.5342 17.1428 21.8003 17.4637 21.8003H18.1682V23.4285C17.1897 23.6555 16.2739 24.0547 15.4598 24.5948V21.2132C15.4598 20.8923 15.1936 20.6261 14.8727 20.6261H9.70636C9.38542 20.6261 9.11928 20.8844 9.11928 21.2132V26.3874C9.11928 26.7083 9.37759 26.9745 9.70636 26.9745H13.088C12.7905 27.4207 12.54 27.8903 12.3365 28.3913L7.11536 28.3991ZM14.2934 21.8003V25.5263C14.1995 25.6124 14.1056 25.7064 14.0195 25.8003H10.2934V21.7925H14.2934V21.8003ZM20.0547 38.7475C16.0938 38.7475 12.8766 35.5302 12.8766 31.5694C12.8766 27.6085 16.0938 24.3913 20.0547 24.3913C24.0156 24.3913 27.2328 27.6085 27.2328 31.5694C27.2406 35.5302 24.0156 38.7475 20.0547 38.7475ZM25.8238 25.5342V21.8081H29.8238V25.816H26.0978C26.0038 25.7142 25.9177 25.6203 25.8238 25.5342ZM33.7064 27.6868C33.7064 28.0782 33.3854 28.3913 33.0019 28.3913H27.7807C27.5772 27.8903 27.3267 27.4207 27.0293 26.9745H30.4109C30.7318 26.9745 30.9979 26.7161 30.9979 26.3874V21.2132C30.9979 20.8923 30.7396 20.6261 30.4109 20.6261H25.2367C24.9158 20.6261 24.6496 20.8844 24.6496 21.2132V24.5948C23.8355 24.0547 22.9197 23.6555 21.9412 23.4285V21.8003H22.6535C22.9745 21.8003 23.2406 21.542 23.2406 21.2132V18.9745L33.7142 13.448V27.6868H33.7064ZM33.7064 12.1252L22.6457 17.9647L21.2915 17.2367L24.9549 15.2641C24.9549 15.2641 24.9549 15.2641 24.9627 15.2641L33.7064 10.5518V12.1252ZM33.7064 3.80421H31.6242C31.3032 3.80421 31.0371 4.06253 31.0371 4.3913C31.0371 4.71224 31.3032 4.97838 31.6242 4.97838H33.7064V9.22104L24.5322 14.1604H21.3541C21.0332 14.1604 20.767 14.4265 20.767 14.7475C20.767 15.0684 21.0332 15.3345 21.3541 15.3345H22.3561L20.0547 16.5713L19.3502 16.1878V12.1565C19.3502 11.8355 19.0841 11.5694 18.7631 11.5694H10.7788L6.41086 9.21321V4.97838H29.1976C29.5185 4.97838 29.7846 4.71224 29.7846 4.3913C29.7846 4.07036 29.5263 3.80421 29.1976 3.80421H6.40303V1.8003C6.40303 1.40891 6.72397 1.0958 7.11536 1.0958H33.0019C33.3933 1.0958 33.7064 1.41674 33.7064 1.8003V3.80421Z" fill="white"/>
</g>
<defs>
<clipPath id="clip0">
<rect width="40" height="40" fill="white"/>
</clipPath>
</defs>
</svg>
