<svg width="40" height="40" viewBox="0 0 40 40" fill="none" xmlns="http://www.w3.org/2000/svg">
<g clip-path="url(#clip0)">
<path d="M39.9999 21.3335V18.6669C39.9999 18.2987 39.7014 18.0002 39.3332 18.0002H29.3333V4.6669C29.3333 4.29873 29.0348 4.00024 28.6666 4.00024H23.2593C24.1593 3.12474 24.6669 1.92249 24.6666 0.666909C24.6666 0.298743 24.3681 0.000244141 23.9999 0.000244141C22.3594 0.00282747 20.8406 0.866742 20 2.27557C19.1593 0.866742 17.6405 0.00282747 16 0.000244141C15.6318 0.000244141 15.3333 0.298743 15.3333 0.666909C15.333 1.92249 15.8406 3.12474 16.7406 4.00024H11.3333C10.9651 4.00024 10.6666 4.29873 10.6666 4.6669V18.0002H0.666665C0.298499 18.0002 0 18.2987 0 18.6669V21.3335C0 21.7017 0.298499 22.0002 0.666665 22.0002H22.5586L18.5586 23.3335H8.66665C8.48981 23.3335 8.32032 23.4039 8.19532 23.5289L5.33332 26.3909L4.47132 25.5289C4.21099 25.2686 3.78899 25.2686 3.52866 25.5289L0.195333 28.8622C-0.0649165 29.1225 -0.0649165 29.5445 0.195333 29.8048L10.1953 39.8048C10.4556 40.0651 10.8776 40.0651 11.138 39.8048L14.4713 36.4715C14.7316 36.2112 14.7316 35.7892 14.4713 35.5288L14.3613 35.4188L18.2133 32.6668H31.3333C31.5001 32.6668 31.6609 32.6043 31.7839 32.4915L39.0332 25.8469C40.1264 24.8463 40.3168 23.1939 39.4799 21.9709C39.781 21.9063 39.9971 21.6414 39.9999 21.3335ZM23.2479 1.41891C22.9582 2.65782 21.9909 3.62515 20.752 3.9149C21.0417 2.67599 22.009 1.70866 23.2479 1.41891ZM19.248 3.9149C18.009 3.62515 17.0417 2.65782 16.752 1.41891C17.9909 1.70866 18.9582 2.67599 19.248 3.9149ZM12 5.33357H27.9999V18.0002H20.8333L26.5333 10.4002C26.711 10.1632 26.711 9.83722 26.5333 9.60022L24.5333 6.93356C24.4074 6.76573 24.2098 6.6669 23.9999 6.6669H16C15.7901 6.6669 15.5925 6.76573 15.4666 6.93356L13.4666 9.60022C13.2889 9.83722 13.2889 10.1632 13.4666 10.4002L19.1666 18.0002H12V5.33357ZM16.8666 10.6669L18.31 14.6355L15.3333 10.6669H16.8666ZM15.3333 9.33356L16.3333 8.00023H18.3906L17.0573 9.33356H15.3333ZM18.2846 10.6669H21.7153L20 15.3829L18.2846 10.6669ZM18.9426 9.33356L20 8.27623L21.0573 9.33356H18.9426ZM22.9426 9.33356L21.6093 8.00023H23.6666L24.6666 9.33356H22.9426ZM24.6666 10.6669L21.69 14.6355L23.1333 10.6669H24.6666ZM1.33333 20.6669V19.3335H38.6666V20.6669H1.33333ZM28.4939 22.3832C28.4227 22.2488 28.3402 22.1206 28.2473 22.0002H34.2466L29.7466 26.0002H27.3806C28.6869 25.3088 29.1853 23.6894 28.4939 22.3832ZM10.6666 38.3908L1.60933 29.3335L3.99999 26.9429L13.0573 36.0002L10.6666 38.3908ZM38.1333 24.8668L31.0739 31.3334H18C17.861 31.3334 17.7257 31.3768 17.6126 31.4574L13.4053 34.4627L6.27599 27.3334L8.94265 24.6668H18.6666C18.7382 24.6669 18.8094 24.6554 18.8773 24.6328L25.6973 22.3594C26.4024 22.1229 27.1658 22.5027 27.4024 23.2078C27.6389 23.9129 27.2591 24.6763 26.554 24.9129C26.5287 24.9214 26.5031 24.9291 26.4773 24.9361L22.5773 26.0001H20.6666V27.3334H29.9999C30.1631 27.3335 30.3206 27.2737 30.4426 27.1654L35.7859 22.4161C36.0873 22.148 36.4766 21.9999 36.8799 22.0001H37.0179C37.9281 21.9969 38.6686 22.732 38.6718 23.6421C38.6735 24.1082 38.4778 24.5531 38.1333 24.8668Z" fill="white"/>
<path d="M3.8051 28.1959L2.8623 29.1387L4.86245 31.1388L5.80525 30.196L3.8051 28.1959Z" fill="white"/>
<path d="M32.6666 2.66699H31.3333V4.00032H32.6666V2.66699Z" fill="white"/>
<path d="M34 1.3335H32.6666V2.66683H34V1.3335Z" fill="white"/>
<path d="M35.3333 2.66699H34V4.00032H35.3333V2.66699Z" fill="white"/>
<path d="M34 4.00024H32.6666V5.33357H34V4.00024Z" fill="white"/>
<path d="M40 0.666992H38.6666V2.00032H40V0.666992Z" fill="white"/>
<path d="M34.6666 8.00024H33.3333V9.33357H34.6666V8.00024Z" fill="white"/>
<path d="M7.33333 7.3335H6V8.66683H7.33333V7.3335Z" fill="white"/>
<path d="M7.33333 10.0002H6V11.3336H7.33333V10.0002Z" fill="white"/>
<path d="M8.6667 8.66675H7.33337V10.0001H8.6667V8.66675Z" fill="white"/>
<path d="M5.99996 8.66675H4.66663V10.0001H5.99996V8.66675Z" fill="white"/>
<path d="M1.33333 4.00024H0V5.33357H1.33333V4.00024Z" fill="white"/>
<path d="M7.33333 0.666992H6V2.00032H7.33333V0.666992Z" fill="white"/>
</g>
<defs>
<clipPath id="clip0">
<rect width="40" height="40" fill="white"/>
</clipPath>
</defs>
</svg>
