<svg width="40" height="40" viewBox="0 0 40 40" fill="none" xmlns="http://www.w3.org/2000/svg">
<path d="M39.4358 10.5039L36.8554 10.1305C36.4904 10.0807 36.2414 9.74054 36.2912 9.38377C36.3161 9.20953 36.4074 9.05189 36.5484 8.94403L38.631 7.38418C38.9214 7.16016 38.9878 6.74531 38.7637 6.45492L36.3742 3.26885C36.1502 2.97846 35.7353 2.91208 35.4449 3.1361L33.3624 4.70424C33.072 4.92826 32.6571 4.87018 32.4331 4.57979C32.3252 4.43874 32.2755 4.2562 32.3087 4.08196L32.6737 1.50159C32.7235 1.13652 32.4746 0.804636 32.1095 0.746556L28.1684 0.182358C27.8034 0.132576 27.4715 0.381487 27.4134 0.746556L27.0483 3.31864C26.9986 3.68371 26.6584 3.93262 26.3016 3.88284C26.1274 3.85794 25.9697 3.76668 25.8619 3.62563L24.2937 1.53477C24.0697 1.24438 23.6548 1.178 23.3644 1.40202L21.3732 2.89549C20.4688 2.79592 19.5644 2.79592 18.66 2.89549C12.7525 3.56755 8.1145 8.28026 7.542 14.2043C7.52541 14.3952 7.51711 14.5777 7.50882 14.7685H7.30139C6.9861 14.7685 6.7123 14.9926 6.65422 15.2996L6.19788 17.4817L4.36424 16.2122C4.09873 16.0297 3.74196 16.0629 3.51794 16.2869L1.52665 18.2782C1.30263 18.5022 1.26945 18.859 1.45198 19.1245L2.71313 20.9581L0.53101 21.4145C0.215723 21.4891 0 21.7629 0 22.0782V24.7333C0 25.0486 0.215723 25.3224 0.53101 25.3804L2.71313 25.8368L1.45198 27.6704C1.26945 27.9359 1.30263 28.2927 1.52665 28.5167L3.51794 30.508C3.74196 30.732 4.09873 30.7652 4.36424 30.5827L6.19788 29.3215L6.65422 31.5037C6.7206 31.8107 6.9861 32.0347 7.30139 32.0347H9.95644C10.2717 32.0347 10.5455 31.819 10.6036 31.5037L11.0599 29.3215L12.8936 30.5827C13.1591 30.7652 13.5159 30.732 13.7399 30.508L14.7687 29.4709V31.3626C14.7687 32.3085 15.2748 33.1797 16.0962 33.6526V37.3365C16.0962 38.8051 17.2827 39.9915 18.7513 39.9915H21.4063C22.8749 39.9915 24.0614 38.8051 24.0614 37.3365V33.6526C24.8828 33.1797 25.3889 32.3085 25.3889 31.3626V28.7325C25.4055 27.6289 25.9863 26.6084 26.9239 26.0193C27.4715 25.6625 27.9942 25.2643 28.4837 24.8246L27.5959 23.8372C27.1562 24.2272 26.6916 24.5839 26.1937 24.9075C24.8745 25.7372 24.0697 27.1726 24.0531 28.7325V31.3626C24.0531 32.0928 23.4557 32.6901 22.7256 32.6901H17.4155C16.6853 32.6901 16.0879 32.0928 16.0879 31.3626V28.6827C16.0714 27.156 15.2748 25.7455 13.9805 24.9324C8.72018 21.6302 7.13545 14.6856 10.4377 9.42525C12.487 6.16452 16.0714 4.17323 19.9212 4.15664C19.9129 4.18153 19.9046 4.20642 19.8963 4.23131C19.8714 4.40555 19.9212 4.57979 20.0207 4.72084L21.5889 6.80339C21.7548 7.01911 21.7714 7.30951 21.6304 7.54183C21.4976 7.77414 21.2321 7.8986 20.9666 7.85711L18.3862 7.49205C18.0212 7.44226 17.6893 7.69117 17.6312 8.05624L17.067 11.9973C17.0172 12.3624 17.2661 12.6943 17.6312 12.7524L20.2116 13.1174C20.5766 13.1672 20.8256 13.5074 20.7758 13.8642C20.7509 14.0384 20.6596 14.196 20.5186 14.3039L18.436 15.8721C18.1456 16.0961 18.0792 16.5109 18.3033 16.8013L20.6928 19.9874C20.9168 20.2778 21.3317 20.3442 21.6221 20.1201L23.7129 18.552C24.0033 18.3363 24.4265 18.3943 24.6422 18.6847C24.7501 18.8258 24.7915 19 24.7666 19.1743L24.4016 21.7546C24.3518 22.1197 24.6007 22.4516 24.9658 22.5097L28.9069 23.0739C28.9401 23.0739 28.9732 23.0822 28.9981 23.0822C29.33 23.0822 29.6121 22.8416 29.6536 22.5097L30.0187 19.9293C30.0685 19.5642 30.4086 19.3153 30.7654 19.3651C30.9396 19.39 31.0973 19.4813 31.2051 19.6223L32.7733 21.7049C32.9973 21.9953 33.4122 22.0616 33.7026 21.8376L36.8886 19.4481C37.179 19.2241 37.2454 18.8092 37.0214 18.5188L35.4532 16.4362C35.2873 16.2205 35.2707 15.9301 35.4117 15.6978C35.5445 15.4655 35.81 15.3327 36.0755 15.3825L38.6559 15.7476C39.021 15.7974 39.3528 15.5485 39.4109 15.1834L39.9751 11.2423C40.0498 10.8938 39.7926 10.5537 39.4358 10.5039ZM17.4321 34.026H22.7422V35.3535H17.4321V34.026ZM17.4321 36.681H22.7422V37.3448C22.7422 38.0749 22.1448 38.6723 21.4146 38.6723H18.7596C18.0295 38.6723 17.4321 38.0749 17.4321 37.3448V36.681ZM12.1469 25.2311C12.5119 25.5298 12.8853 25.8036 13.2836 26.0608C13.9141 26.4591 14.3788 27.0565 14.6194 27.7617L13.1923 29.1805L11.815 28.2263C11.2093 27.8115 10.3879 27.9608 9.96474 28.5665C9.86517 28.7076 9.7988 28.8735 9.75731 29.0477L9.40884 30.7071H7.8324L7.48392 29.056C7.33458 28.3425 6.62933 27.8779 5.90749 28.0272C5.73325 28.0604 5.57561 28.1351 5.42626 28.2346L4.04895 29.1805L2.83759 27.9774L3.78345 26.6001C4.1983 25.9944 4.04895 25.173 3.44327 24.7499C3.30222 24.6503 3.13628 24.5756 2.96204 24.5424L1.32753 24.194V22.6175L2.97864 22.2691C3.69218 22.1197 4.15681 21.4145 3.99917 20.6926C3.96598 20.5184 3.89131 20.3607 3.79174 20.2197L2.85418 18.8341L4.06555 17.631L5.44285 18.5852C6.04854 19 6.86994 18.8507 7.29309 18.245C7.39266 18.104 7.45903 17.938 7.50052 17.7638L7.61668 17.2079C7.72454 17.9712 7.89878 18.7262 8.13939 19.4564C5.95727 19.7136 4.39743 21.6966 4.65464 23.8787C4.91184 26.0608 6.89484 27.6206 9.07696 27.3634C10.3962 27.2058 11.5412 26.4093 12.1469 25.2311ZM11.118 24.2935C10.6202 25.6708 9.10185 26.3844 7.72454 25.8949C6.34723 25.397 5.63369 23.8787 6.12321 22.5014C6.50488 21.4477 7.50052 20.7424 8.62062 20.7507C8.62892 20.7507 8.63721 20.7507 8.64551 20.7507C9.26779 22.0616 10.0975 23.2647 11.118 24.2935ZM38.2078 14.3537L36.2829 14.0799C35.196 13.9222 34.1838 14.6773 34.0261 15.7725C33.9515 16.2952 34.0842 16.8262 34.4078 17.2494L35.5777 18.8009L33.4536 20.3939L32.2838 18.8341C31.62 17.9546 30.3754 17.7721 29.496 18.4358C29.0728 18.7511 28.7907 19.2241 28.716 19.7468L28.4505 21.6717L25.8204 21.2983L26.0942 19.3734C26.2518 18.2865 25.4968 17.2743 24.4016 17.1166C23.8789 17.0419 23.3479 17.1747 22.9247 17.4983L21.3732 18.6681L19.7801 16.5441L21.3317 15.3742C22.2112 14.7105 22.3937 13.4659 21.7299 12.5864C21.4146 12.1633 20.9417 11.8812 20.419 11.8065L18.4941 11.5327L18.8675 8.90254L20.7924 9.17634C21.8793 9.33399 22.8915 8.57896 23.0492 7.48375C23.1238 6.96104 22.9911 6.43003 22.6675 6.00688L21.4976 4.44703L23.6217 2.854L24.7915 4.40555C25.4553 5.28503 26.6999 5.46757 27.5793 4.80381C28.0025 4.48852 28.2846 4.01559 28.3593 3.49287L28.6331 1.56796L31.2632 1.94133L30.9894 3.86624C30.8318 4.95315 31.5868 5.96539 32.682 6.12303C33.2047 6.19771 33.7357 6.06496 34.1589 5.74137L35.7104 4.57149L37.3035 6.72042L35.7519 7.88201C34.8724 8.54577 34.6899 9.79032 35.3537 10.6698C35.669 11.093 36.1419 11.3751 36.6646 11.4497L38.5895 11.7235L38.2078 14.3537Z" fill="white"/>
<path d="M28.5418 6.32251C25.6129 6.32251 23.2317 8.70376 23.2317 11.6326C23.2317 14.5615 25.6129 16.9427 28.5418 16.9427C31.4706 16.9427 33.8519 14.5615 33.8519 11.6326C33.8519 8.69546 31.4706 6.32251 28.5418 6.32251ZM28.5418 15.6152C26.3431 15.6152 24.5592 13.8313 24.5592 11.6326C24.5592 9.4339 26.3431 7.65004 28.5418 7.65004C30.7405 7.65004 32.5244 9.4339 32.5244 11.6326C32.5244 13.8313 30.7405 15.6069 28.5418 15.6152Z" fill="white"/>
<path d="M20.7508 29.3796H19.4233V31.3709H20.7508V29.3796Z" fill="white"/>
<path d="M17.1832 22.8583C13.0845 21.257 11.06 16.6356 12.6614 12.5368C13.2836 10.9521 14.3954 9.59967 15.8391 8.6953L15.1256 7.5752C10.7862 10.3132 9.48359 16.0465 12.2133 20.3941C13.2753 22.0784 14.8435 23.3728 16.6937 24.0946C18.3365 24.7252 19.4151 26.2933 19.4151 28.0523H20.7427C20.751 25.7457 19.3322 23.6798 17.1832 22.8583Z" fill="white"/>
<path d="M37.3449 24.7334H32.6986V26.0609H37.3449V24.7334Z" fill="white"/>
<path d="M32.4596 28.2027L31.6099 29.2227L35.594 32.542L36.4437 31.5221L32.4596 28.2027Z" fill="white"/>
<path d="M30.0436 30.0435H28.7161V34.6898H30.0436V30.0435Z" fill="white"/>
<path d="M5.98895 10.1501L0.676636 11.478L0.998561 12.7659L6.31088 11.4379L5.98895 10.1501Z" fill="white"/>
<path d="M2.55427 3.61608L1.78271 4.69629L6.42761 8.01399L7.19917 6.93378L2.55427 3.61608Z" fill="white"/>
<path d="M8.75022 0.0049118L7.46411 0.33374L8.82259 5.64697L10.1087 5.31815L8.75022 0.0049118Z" fill="white"/>
</svg>
