<svg width="51" height="51" viewBox="0 0 51 51" fill="none" xmlns="http://www.w3.org/2000/svg">
<path d="M50.0026 43.6284C48.479 43.6284 47.0108 43.0057 45.9466 41.9171C45.9897 37.637 47.6756 33.6194 50.7069 30.5881C50.9917 30.3033 51.0771 29.8748 50.9229 29.5026C50.7687 29.1305 50.4055 28.8877 50.0026 28.8877H46.616V25.8994C46.616 23.4944 44.9022 21.482 42.6317 21.0194V20.0603C42.6317 18.5315 41.3881 17.288 39.8594 17.288H27.4749C25.9461 17.288 24.7026 18.5317 24.7026 20.0603V21.0194C22.4321 21.4821 20.7183 23.4943 20.7183 25.8994V28.8877H19.2915L15.1726 13.4696C15.0562 13.0339 14.6614 12.7306 14.2103 12.7306H12.9652V10.0246C12.9652 9.4745 12.5191 9.02855 11.9691 9.02855C11.419 9.02855 10.973 9.4745 10.973 10.0246V12.7306H7.45359V6.32276C7.45359 5.77261 7.00753 5.32666 6.45749 5.32666C5.90745 5.32666 5.46139 5.77261 5.46139 6.32276V12.7307H2.98819C2.43814 12.7307 1.99209 13.1767 1.99209 13.7268V28.8877H1.00895C0.606025 28.8877 0.242848 29.1305 0.0886525 29.5026C-0.0654435 29.8748 0.0198223 30.3033 0.304606 30.5881C3.33284 33.6163 5.01833 37.6288 5.06475 41.904C3.99972 43.0006 2.5258 43.6283 0.996096 43.6283C0.446052 43.6283 0 44.0744 0 44.6244C0 45.1745 0.446052 45.6205 0.996096 45.6205C2.79006 45.6205 4.52825 44.9834 5.89679 43.847C7.26532 44.9835 9.00341 45.6205 10.7975 45.6205C12.5916 45.6205 14.3295 44.9835 15.6981 43.847C17.0666 44.9836 18.8046 45.6205 20.5988 45.6205C22.3927 45.6205 24.1309 44.9834 25.4995 43.847C26.868 44.9835 28.6061 45.6205 30.4001 45.6205C32.1942 45.6205 33.9323 44.9835 35.3008 43.847C36.6694 44.9836 38.4074 45.6205 40.2014 45.6205C41.9955 45.6205 43.7336 44.9834 45.1021 43.847C46.4707 44.9835 48.2087 45.6205 50.0028 45.6205C50.5529 45.6205 50.9989 45.1745 50.9989 44.6244C50.9989 44.0744 50.5527 43.6284 50.0026 43.6284ZM41.6357 25.002C42.1857 25.002 42.6318 24.5561 42.6318 24.0059V23.0827C43.7912 23.4938 44.6239 24.6009 44.6239 25.8994V28.8876H38.6475V25.8994C38.6475 24.6009 39.4804 23.4939 40.6397 23.0827V24.0059C40.6396 24.5561 41.0857 25.002 41.6357 25.002ZM34.6631 19.2801H39.8594C40.2896 19.2801 40.6396 19.6301 40.6396 20.0603V21.0194C39.4252 21.2669 38.3702 21.9577 37.6514 22.9146C36.9325 21.9575 35.8776 21.2667 34.6632 21.0194V19.2801H34.6631ZM33.6671 25.002C34.2172 25.002 34.6632 24.5561 34.6632 24.0059V23.0827C35.8226 23.4939 36.6553 24.601 36.6553 25.8994V28.8876H30.679V25.8994C30.679 24.6009 31.5118 23.4939 32.671 23.0827V24.0059C32.671 24.5561 33.1171 25.002 33.6671 25.002ZM26.6947 20.0603C26.6947 19.6301 27.0447 19.2801 27.4749 19.2801H32.6711V21.0194C31.4567 21.2669 30.4018 21.9577 29.683 22.9146C28.9641 21.9575 27.9091 21.2667 26.6948 21.0194V20.0603H26.6947ZM22.7104 25.8994C22.7104 24.6009 23.5432 23.4939 24.7025 23.0827V24.0059C24.7025 24.5561 25.1485 25.002 25.6986 25.002C26.2486 25.002 26.6947 24.5561 26.6947 24.0059V23.0827C27.854 23.4939 28.6868 24.601 28.6868 25.8994V28.8876H22.7104V25.8994ZM3.98428 26.4433H10.0603C10.6103 26.4433 11.0564 25.9973 11.0564 25.4472C11.0564 24.8971 10.6103 24.4511 10.0603 24.4511H3.98428V14.7228H13.4453L17.2294 28.8876H3.98428V26.4433ZM43.9522 42.0854V42.2089C42.9212 43.1168 41.5835 43.6284 40.201 43.6284C38.6237 43.6284 37.1044 42.9624 36.0327 41.8012C35.8441 41.5969 35.5786 41.4807 35.3006 41.4807C35.0226 41.4807 34.7572 41.5969 34.5686 41.8012C33.4969 42.9624 31.9776 43.6284 30.3998 43.6284C28.8222 43.6284 27.3028 42.9623 26.2311 41.8012C26.0424 41.5969 25.7771 41.4807 25.4991 41.4807C25.221 41.4807 24.9557 41.5969 24.767 41.8012C23.6953 42.9623 22.1759 43.6284 20.5983 43.6284C19.0205 43.6284 17.5012 42.9624 16.4295 41.8012C16.2409 41.5969 15.9755 41.4807 15.6975 41.4807C15.4195 41.4807 15.154 41.5969 14.9654 41.8012C13.8937 42.9624 12.3744 43.6284 10.7968 43.6284C9.41998 43.6284 8.0877 43.121 7.05853 42.2201V42.0854C7.05853 37.9738 5.70833 34.0699 3.21739 30.8799H47.7932C45.3023 34.0699 43.9522 37.9738 43.9522 42.0854Z" fill="#427C8A"/>
<path d="M50.0026 49.0071C48.425 49.0071 46.9055 48.341 45.8339 47.1799C45.6452 46.9756 45.3798 46.8594 45.1018 46.8594C44.8238 46.8594 44.5584 46.9756 44.3698 47.1799C43.2981 48.3411 41.7786 49.0071 40.201 49.0071C38.6234 49.0071 37.1041 48.3411 36.0324 47.1799C35.8438 46.9756 35.5783 46.8594 35.3003 46.8594C35.0223 46.8594 34.7569 46.9756 34.5683 47.1799C33.4966 48.3412 31.9773 49.0071 30.3995 49.0071C28.8219 49.0071 27.3025 48.341 26.2308 47.1799C26.0421 46.9756 25.7768 46.8594 25.4988 46.8594C25.2207 46.8594 24.9554 46.9756 24.7667 47.1799C23.695 48.3411 22.1756 49.0071 20.598 49.0071C19.0202 49.0071 17.5009 48.3411 16.4292 47.1799C16.2406 46.9756 15.9752 46.8594 15.6972 46.8594C15.4192 46.8594 15.1537 46.9756 14.9651 47.1799C13.8934 48.3412 12.3741 49.0071 10.7965 49.0071C9.21887 49.0071 7.69942 48.341 6.62772 47.1799C6.43906 46.9756 6.1737 46.8594 5.89569 46.8594C5.61768 46.8594 5.35232 46.9756 5.16366 47.1799C4.09316 48.341 2.57361 49.0071 0.996096 49.0071C0.446052 49.0071 0 49.4531 0 50.0032C0 50.5532 0.446052 50.9993 0.996096 50.9993C2.79006 50.9993 4.52825 50.3621 5.89679 49.2256C7.26532 50.3621 9.00341 50.9993 10.7975 50.9993C12.5916 50.9993 14.3295 50.3622 15.6981 49.2256C17.0666 50.3622 18.8046 50.9993 20.5988 50.9993C22.3927 50.9993 24.1309 50.3621 25.4995 49.2256C26.868 50.3621 28.6061 50.9993 30.4001 50.9993C32.1942 50.9993 33.9323 50.3622 35.3008 49.2256C36.6694 50.3622 38.4074 50.9993 40.2014 50.9993C41.9955 50.9993 43.7336 50.3621 45.1021 49.2256C46.4707 50.3621 48.2087 50.9993 50.0028 50.9993C50.5529 50.9993 50.9989 50.5532 50.9989 50.0032C50.9989 49.4531 50.5527 49.0071 50.0026 49.0071Z" fill="#427C8A"/>
<path d="M9.21341 16.1841C7.56567 16.1841 6.22522 17.5246 6.22522 19.1723C6.22522 20.8199 7.56577 22.1605 9.21341 22.1605C10.8612 22.1605 12.2016 20.8199 12.2016 19.1723C12.2016 17.5246 10.8611 16.1841 9.21341 16.1841ZM9.21341 20.1684C8.66416 20.1684 8.21731 19.7215 8.21731 19.1723C8.21731 18.623 8.66416 18.1762 9.21341 18.1762C9.76266 18.1762 10.2095 18.623 10.2095 19.1723C10.2095 19.7215 9.76256 20.1684 9.21341 20.1684Z" fill="#427C8A"/>
<path d="M12.1051 35.158H9.44507C8.89503 35.158 8.44897 35.604 8.44897 36.1541C8.44897 36.7041 8.89503 37.1502 9.44507 37.1502H12.105C12.6551 37.1502 13.1011 36.7041 13.1011 36.1541C13.1011 35.604 12.6553 35.158 12.1051 35.158Z" fill="#427C8A"/>
<path d="M19.4673 35.158H16.8074C16.2573 35.158 15.8113 35.604 15.8113 36.1541C15.8113 36.7041 16.2573 37.1502 16.8074 37.1502H19.4673C20.0173 37.1502 20.4633 36.7041 20.4633 36.1541C20.4633 35.604 20.0174 35.158 19.4673 35.158Z" fill="#427C8A"/>
<path d="M26.8294 35.158H24.1694C23.6194 35.158 23.1733 35.604 23.1733 36.1541C23.1733 36.7041 23.6194 37.1502 24.1694 37.1502H26.8294C27.3795 37.1502 27.8255 36.7041 27.8255 36.1541C27.8255 35.604 27.3794 35.158 26.8294 35.158Z" fill="#427C8A"/>
<path d="M32.2357 35.4498C32.0505 35.2645 31.7934 35.158 31.5315 35.158C31.2695 35.158 31.0125 35.2645 30.8274 35.4498C30.6421 35.6351 30.5354 35.8921 30.5354 36.1541C30.5354 36.416 30.642 36.673 30.8274 36.8583C31.0125 37.0435 31.2695 37.1502 31.5315 37.1502C31.7935 37.1502 32.0505 37.0436 32.2357 36.8583C32.421 36.673 32.5276 36.416 32.5276 36.1541C32.5276 35.8921 32.4211 35.6351 32.2357 35.4498Z" fill="#427C8A"/>
<path d="M41.5536 35.158H35.7588C35.2087 35.158 34.7627 35.604 34.7627 36.1541C34.7627 36.7041 35.2087 37.1502 35.7588 37.1502H41.5535C42.1035 37.1502 42.5496 36.7041 42.5496 36.1541C42.5496 35.604 42.1035 35.158 41.5536 35.158Z" fill="#427C8A"/>
<path d="M14.3503 24.743C14.1651 24.5578 13.9081 24.4512 13.6461 24.4512C13.3841 24.4512 13.1272 24.5578 12.9419 24.743C12.7566 24.9283 12.65 25.1853 12.65 25.4473C12.65 25.7092 12.7565 25.9662 12.9419 26.1515C13.1272 26.3367 13.3841 26.4434 13.6461 26.4434C13.9081 26.4434 14.1651 26.3368 14.3503 26.1515C14.5355 25.9662 14.6422 25.7092 14.6422 25.4473C14.6422 25.1853 14.5356 24.9283 14.3503 24.743Z" fill="#427C8A"/>
<path d="M49.5661 5.97417C49.5654 5.97328 49.5647 5.97238 49.564 5.97149L45.3234 0.393747C45.1354 0.146616 44.8432 0.00128516 44.5327 0.000488281C44.2216 0.00467188 43.9293 0.143727 43.7402 0.390061L39.4808 5.93861C39.4702 5.95246 39.46 5.9665 39.4501 5.98075C38.5284 7.14917 38.0217 8.61463 38.0217 10.1165C38.0219 13.7597 40.9328 16.7235 44.5109 16.7235C48.089 16.7235 50.9999 13.7597 50.9999 10.1164C51 8.61313 50.491 7.14329 49.5661 5.97417ZM44.511 14.7316C42.0315 14.7316 40.0141 12.6614 40.0141 10.1165C40.0141 9.04235 40.3816 7.99655 41.0488 7.17158C41.0692 7.14638 41.0882 7.12018 41.1058 7.09349L44.5266 2.63725L47.963 7.15704C47.9724 7.17009 47.9821 7.18294 47.9922 7.19559C48.6472 8.01647 49.0079 9.0539 49.0079 10.1166C49.0079 12.6613 46.9905 14.7316 44.511 14.7316Z" fill="#427C8A"/>
</svg>
