<svg width="38" height="51" viewBox="0 0 38 51" fill="none" xmlns="http://www.w3.org/2000/svg">
<path d="M34.5219 16.5299L24.168 12.5598V5.62178H30.7373V7.21912H29.758C29.4501 7.21912 29.2005 7.55401 29.2005 7.96739V11.0615C29.2005 11.4748 29.4501 11.8097 29.758 11.8097H32.8318C33.1398 11.8097 33.3894 11.4748 33.3894 11.0615V7.96749C33.3894 7.55411 33.1398 7.21922 32.8318 7.21922H31.8524V5.62178H34.3688C34.6468 5.62178 34.8824 5.34685 34.9209 4.9773C34.9595 4.60775 34.7893 4.25662 34.5219 4.15403L23.7767 0.0339669C23.7761 0.0336681 23.7755 0.0334689 23.7749 0.0332697L23.7636 0.0289864C23.7592 0.0272931 23.7549 0.0263966 23.7505 0.0249024C23.7386 0.0207188 23.7266 0.0167344 23.7143 0.0136465C23.7054 0.0113555 23.6966 0.00986137 23.6877 0.008168C23.6788 0.00647463 23.6701 0.00468166 23.6611 0.00358595C23.6488 0.0020918 23.6365 0.00149415 23.6241 0.00109571C23.6195 0.000796878 23.6151 0 23.6105 0H23.5985C23.598 0 23.5974 0 23.5969 0H14.4032C14.4023 0 14.4012 0 14.4003 0H14.3894C14.3851 0 14.381 0.000697268 14.3767 0.000896488C14.364 0.00129493 14.3512 0.00189259 14.3384 0.00348634C14.3299 0.00448244 14.3215 0.00627542 14.313 0.00786917C14.3038 0.00966215 14.2946 0.0111563 14.2852 0.0135469C14.2732 0.0166348 14.2614 0.0205196 14.2498 0.0246036C14.2452 0.0261974 14.2407 0.0270939 14.2362 0.0287872L14.2246 0.0332697C14.2242 0.0334689 14.2237 0.0335685 14.2233 0.0337677L3.47798 4.15403C3.21064 4.25662 3.04046 4.60775 3.07905 4.9773C3.11764 5.34685 3.35322 5.62178 3.63124 5.62178H6.14749V7.21912H5.16802C4.86009 7.21912 4.61049 7.55401 4.61049 7.96739V11.0615C4.61049 11.4748 4.86009 11.8097 5.16802 11.8097H8.2418C8.54974 11.8097 8.79933 11.4748 8.79933 11.0615V7.96749C8.79933 7.55411 8.54974 7.21922 8.2418 7.21922H7.26241V5.62178H13.8318V12.5597L3.47798 16.5299C3.21064 16.6325 3.04046 16.9837 3.07905 17.3532C3.11764 17.7228 3.35322 17.9977 3.63124 17.9977H6.14749V19.595H5.16802C4.86009 19.595 4.61049 19.9299 4.61049 20.3433V23.4374C4.61049 23.8508 4.86009 24.1856 5.16802 24.1856H8.2418C8.54974 24.1856 8.79933 23.8508 8.79933 23.4374V20.3433C8.79933 19.9299 8.54974 19.595 8.2418 19.595H7.26241V17.9977H13.8318V25.3952L11.5516 36.1059C11.5515 36.1062 11.5514 36.1067 11.5513 36.1071L11.5468 36.128C11.5468 36.1283 11.5467 36.1287 11.5466 36.129L11.5456 36.1338C11.5454 36.1347 11.5452 36.1356 11.545 36.1364L9.35798 46.4092H8.24165C7.93372 46.4092 7.68412 46.7441 7.68412 47.1575V49.5034H6.54486C6.23692 49.5034 5.98732 49.8382 5.98732 50.2516C5.98732 50.665 6.23692 50.9999 6.54486 50.9999H8.2418H29.7582H31.455C31.7629 50.9999 32.0125 50.665 32.0125 50.2516C32.0125 49.8382 31.7629 49.5034 31.455 49.5034H30.3157V47.1575C30.3157 46.7441 30.0661 46.4092 29.7582 46.4092H28.6418L26.4549 36.1371C26.4546 36.1356 26.4543 36.134 26.454 36.1325L26.4489 36.1087C26.4486 36.1075 26.4484 36.1063 26.4482 36.1052L24.1681 25.3951V17.9976H30.7374V19.5949H29.7581C29.4502 19.5949 29.2006 19.9298 29.2006 20.3432V23.4373C29.2006 23.8507 29.4502 24.1855 29.7581 24.1855H32.8319C33.1398 24.1855 33.3894 23.8507 33.3894 23.4373V20.3433C33.3894 19.9299 33.1398 19.595 32.8319 19.595H31.8524V17.9977H34.3688C34.6469 17.9977 34.8824 17.7228 34.921 17.3532C34.9594 16.9837 34.7891 16.6325 34.5219 16.5299ZM32.2743 8.71575V10.3133H30.3156V8.71575H32.2743ZM24.168 1.74038L30.3879 4.12534H24.168V1.74038ZM7.68427 8.71575V10.3133H5.72555V8.71575H7.68427ZM7.68427 21.0915V22.689H5.72555V21.0915H7.68427ZM14.9469 1.49654H23.053V4.12534H14.9469V1.49654ZM23.053 5.62178V11.726L16.2306 5.62178H23.053ZM14.9469 6.27173L21.7691 12.3758H14.9469V6.27173ZM14.9469 13.8724H23.053V16.5013H14.9469V13.8724ZM13.8528 35.5805L19 30.7449L24.1472 35.5805H13.8528ZM23.5542 37.077L18.9999 40.1333L14.4457 37.077H23.5542ZM16.1581 26.2483H21.8418L18.9999 28.918L16.1581 26.2483ZM23.053 17.9977V24.1018L16.2307 17.9977H23.053ZM14.9469 18.6475L21.7693 24.7518H14.9469V18.6475ZM7.6119 4.12524L13.8318 1.74028V4.12524H7.6119ZM7.6119 16.5012L13.8318 14.116V16.5012H7.6119ZM14.7105 26.7151L18.0277 29.8315L13.0519 34.506L14.7105 26.7151ZM12.4355 37.4012L17.7533 40.9697L10.6629 45.7278L12.4355 37.4012ZM28.2208 47.9062H28.221C28.2216 47.9062 28.2224 47.906 28.223 47.906H29.2007V49.5037H29.2007H8.79941V47.906H9.77702C9.77776 47.906 9.77843 47.9062 9.7791 47.9062C9.77992 47.9062 9.78081 47.906 9.78162 47.906H9.78964C9.7906 47.906 9.79164 47.906 9.79261 47.906H15.0437C15.3516 47.906 15.6012 47.5711 15.6012 47.1577C15.6012 46.7444 15.3516 46.4095 15.0437 46.4095H12.1403L18.9999 41.8063L25.8595 46.4095H17.5293C17.2214 46.4095 16.9718 46.7444 16.9718 47.1577C16.9718 47.5711 17.2214 47.906 17.5293 47.906H28.2183C28.2191 47.906 28.22 47.9062 28.2208 47.9062ZM27.3369 45.7278L20.2466 40.9697L25.5643 37.4012L27.3369 45.7278ZM24.948 34.5061L19.9721 29.8315L23.2893 26.7151L24.948 34.5061ZM24.168 16.5012V14.1161L30.3879 16.5012H24.168ZM32.2743 21.0915V22.689H30.3156V21.0915H32.2743Z" fill="#427C8A"/>
</svg>
