<svg width="51" height="51" viewBox="0 0 51 51" fill="none" xmlns="http://www.w3.org/2000/svg">
<path d="M51 16.502V0H44.2V6.77717L11.9 15.4249V11.9H0V25.5681L3.75112 32.3H11.9V22.464L18.3601 20.7333L12.9139 45.9H0V51H51V41.65H48.45V19.052L51 16.502ZM45.9 1.7H49.3V15.798L47.6 17.498L45.9 15.798V1.7ZM10.2 30.6H4.74888L1.7 25.1269V13.6H10.2V30.6ZM11.9 20.7026V17.1851L44.2 8.53652V12.0469L11.9 20.7026ZM30.2219 17.5532L31.7551 24.65H19.2491L20.2029 20.2386L30.2219 17.5532ZM18.881 26.35H32.1224L32.3772 27.5171L25.5 34.1274L18.6286 27.5196L18.881 26.35ZM24.2736 35.3074L15.0194 44.2058L18.2061 29.4719L24.2736 35.3074ZM25.5 36.4861L35.2904 45.9H15.7096L25.5 36.4861ZM26.7264 35.3074L32.7964 29.4694L35.9806 44.2058L26.7264 35.3074ZM49.3 49.3H1.7V47.6H49.3V49.3ZM49.3 43.35V45.9H45.9V43.35H49.3ZM44.2 41.65V45.9H38.0861L31.8655 17.1129L44.2 13.8075V16.502L46.75 19.052V41.65H44.2Z" fill="#427C8A"/>
</svg>
