<svg height="480pt" viewBox="-40 0 480 480" width="480pt" xmlns="http://www.w3.org/2000/svg" xmlns:xlink="http://www.w3.org/1999/xlink"><linearGradient id="a"><stop offset="0" stop-color="#4761ac"/><stop offset="1" stop-color="#54c2ef"/></linearGradient><linearGradient id="b" gradientUnits="userSpaceOnUse" x1="-48" x2="458.784" xlink:href="#a" y1="72" y2="72"/><linearGradient id="c" gradientUnits="userSpaceOnUse" x1="-48" x2="458.784" xlink:href="#a" y1="104" y2="104"/><linearGradient id="d" gradientUnits="userSpaceOnUse" x1="-48" x2="458.784" xlink:href="#a" y1="64" y2="64"/><linearGradient id="e" gradientUnits="userSpaceOnUse" x1="-48" x2="458.784" xlink:href="#a" y1="136" y2="136"/><linearGradient id="f" gradientUnits="userSpaceOnUse" x1="-48" x2="458.784" xlink:href="#a" y1="176" y2="176"/><linearGradient id="g" gradientUnits="userSpaceOnUse" x1="-48" x2="458.784" xlink:href="#a" y1="208" y2="208"/><linearGradient id="h" gradientUnits="userSpaceOnUse" x1="-48" x2="458.784" xlink:href="#a" y1="256" y2="256"/><linearGradient id="i" gradientUnits="userSpaceOnUse" x1="-48" x2="458.784" xlink:href="#a" y1="335.104" y2="335.104"/><linearGradient id="j" gradientUnits="userSpaceOnUse" x1="-48" x2="458.784" xlink:href="#a" y1="240" y2="240"/><g fill="url(#b)"><path d="m80 64c-4.417969 0-8 3.582031-8 8s3.582031 8 8 8h16c4.417969 0 8-3.582031 8-8s-3.582031-8-8-8zm0 0"/><path d="m136 80h128c4.417969 0 8-3.582031 8-8s-3.582031-8-8-8h-128c-4.417969 0-8 3.582031-8 8s3.582031 8 8 8zm0 0"/><path d="m296 80h24c4.417969 0 8-3.582031 8-8s-3.582031-8-8-8h-24c-4.417969 0-8 3.582031-8 8s3.582031 8 8 8zm0 0"/></g><path d="m80 112h128c4.417969 0 8-3.582031 8-8s-3.582031-8-8-8h-128c-4.417969 0-8 3.582031-8 8s3.582031 8 8 8zm0 0" fill="url(#c)"/><path d="m320 96h-80c-4.417969 0-8 3.582031-8 8s3.582031 8 8 8h80c4.417969 0 8-3.582031 8-8s-3.582031-8-8-8zm0 0" fill="url(#c)"/><path d="m96 40c0-4.417969-3.582031-8-8-8h-48c-4.417969 0-8 3.582031-8 8v48c0 4.417969 3.582031 8 8 8s8-3.582031 8-8v-40h40c4.417969 0 8-3.582031 8-8zm0 0" fill="url(#d)"/><path d="m312 48h40v40c0 4.417969 3.582031 8 8 8s8-3.582031 8-8v-48c0-4.417969-3.582031-8-8-8h-48c-4.417969 0-8 3.582031-8 8s3.582031 8 8 8zm0 0" fill="url(#d)"/><path d="m320 128h-240c-4.417969 0-8 3.582031-8 8s3.582031 8 8 8h240c4.417969 0 8-3.582031 8-8s-3.582031-8-8-8zm0 0" fill="url(#e)"/><path d="m80 184h72c4.417969 0 8-3.582031 8-8s-3.582031-8-8-8h-72c-4.417969 0-8 3.582031-8 8s3.582031 8 8 8zm0 0" fill="url(#f)"/><path d="m320 168h-136c-4.417969 0-8 3.582031-8 8s3.582031 8 8 8h136c4.417969 0 8-3.582031 8-8s-3.582031-8-8-8zm0 0" fill="url(#f)"/><path d="m200 208c0-4.417969-3.582031-8-8-8h-112c-4.417969 0-8 3.582031-8 8s3.582031 8 8 8h112c4.417969 0 8-3.582031 8-8zm0 0" fill="url(#g)"/><path d="m320 200h-96c-4.417969 0-8 3.582031-8 8s3.582031 8 8 8h96c4.417969 0 8-3.582031 8-8s-3.582031-8-8-8zm0 0" fill="url(#g)"/><path d="m80 248c-4.417969 0-8 3.582031-8 8s3.582031 8 8 8h40c4.417969 0 8-3.582031 8-8s-3.582031-8-8-8zm0 0" fill="url(#h)"/><path d="m224 248h-72c-4.417969 0-8 3.582031-8 8s3.582031 8 8 8h72c4.417969 0 8-3.582031 8-8s-3.582031-8-8-8zm0 0" fill="url(#h)"/><path d="m208 320c-2.722656.09375-5.417969-.554688-7.800781-1.878906-11.757813-5.800782-17.976563.34375-35.847657 20.582031-3.503906 4.683594-7.992187 8.539063-13.152343 11.296875-.644531-1.722656-1.011719-3.539062-1.09375-5.375.949219-5.472656 3.054687-23.511719-8.546875-30.3125-12.679688-7.417969-30.222656 5.328125-42.300782 15.589844-2.648437 2.285156-5.472656 4.351562-8.449218 6.1875 10.183594-28 8-40.273438 3.136718-45.496094-3.28125-3.546875-9.554687-6.761719-20.875-1.953125-14.742187 5.976563-24.523437 20.144531-24.886718 36.046875-.851563 12.265625 5.617187 23.875 16.496094 29.601562l.800781.351563c-2.664063 5.816406-5.550781 11.757813-8.609375 17.597656-2.035156 3.925781-.507813 8.757813 3.417968 10.792969 3.921876 2.039062 8.753907.507812 10.789063-3.414062 4.417969-8.511719 8.1875-16.25 11.378906-23.28125 10.179688-2.257813 19.574219-7.199219 27.199219-14.3125 18.007812-15.3125 23.6875-14.023438 23.824219-14.007813 1.75 4.601563 2.03125 9.632813.800781 14.398437-.097656.507813-.144531 1.023438-.144531 1.539063 0 2.847656.542969 17.246094 11.261719 21.304687 11.3125 4.261719 23.097656-7.089843 30.96875-16 5.058593-6.039062 10.550781-11.699218 16.433593-16.9375l.304688.152344c4.585937 2.414063 9.710937 3.628906 14.894531 3.527344 4.417969 0 8-3.582031 8-8s-3.582031-8-8-8zm-136.136719 20-.289062-.128906c-5.101563-3.125-7.964844-8.898438-7.367188-14.855469.222657-9.617187 6.203125-18.15625 15.160157-21.65625.957031-.417969 1.945312-.757813 2.960937-1.007813-1.128906 13.089844-4.675781 25.855469-10.464844 37.648438zm0 0" fill="url(#i)"/><path d="m8 432h230.457031l-13.953125 37.191406c-.921875 2.457032-.578125 5.210938.917969 7.367188s3.953125 3.441406 6.578125 3.441406h48c3.335938.003906 6.324219-2.066406 7.496094-5.191406l16.503906-44.023438 16.503906 44c1.164063 3.132813 4.152344 5.214844 7.496094 5.214844h48c2.625 0 5.082031-1.285156 6.578125-3.441406s1.839844-4.910156.917969-7.367188l-13.953125-37.191406h22.457031c4.417969 0 8-3.582031 8-8v-416c0-4.417969-3.582031-8-8-8h-384c-4.417969 0-8 3.582031-8 8v416c0 4.417969 3.582031 8 8 8zm266.457031 32h-30.914062l29.914062-79.769531c8.632813 4.675781 18.234375 7.292969 28.046875 7.640625zm-18.457031-136c0-26.507812 21.492188-48 48-48s48 21.492188 48 48-21.492188 48-48 48c-26.5-.027344-47.972656-21.5-48-48zm77.542969 136-21-56 6.722656-17.921875c5.320313-1.285156 10.457031-3.25 15.277344-5.847656l29.914062 79.769531zm-317.542969-448h368v400h-20.457031l-15.597657-41.601562c19.058594-18 25.214844-45.808594 15.527344-70.171876-9.6875-24.363281-33.253906-40.355468-59.472656-40.355468s-49.785156 15.992187-59.472656 40.355468c-9.6875 24.363282-3.53125 52.171876 15.527344 70.171876l-15.597657 41.601562h-228.457031zm0 0" fill="url(#j)"/></svg>