<svg width="40" height="40" viewBox="0 0 40 40" fill="none" xmlns="http://www.w3.org/2000/svg">
<path d="M9.65625 32.0938C10.0156 32.9844 10.8906 33.6094 11.9141 33.6094H13.1406V38.0078C13.1406 38.3281 13.4062 38.5938 13.7266 38.5938H28.5156C28.8359 38.5938 29.1016 38.3281 29.1016 38.0078V32.0859H36.0156C38.2109 32.0859 40 30.2969 40 28.1016V5.3125C40 3.11719 38.2109 1.32812 36.0156 1.32812H11.4453C11.125 1.32812 10.8594 1.59375 10.8594 1.91406C10.8594 2.23438 11.125 2.5 11.4453 2.5H36.0156C37.5703 2.5 38.8281 3.76562 38.8281 5.3125V28.1094C38.8281 29.6641 37.5625 30.9219 36.0156 30.9219H29.1016V28.7031C29.1016 27.375 27.9922 26.2656 26.6641 26.2656C25.9219 26.2656 25.2656 26.5938 24.8125 27.1172C24.3672 26.5938 23.7031 26.2656 22.9609 26.2656C22.2188 26.2656 21.5625 26.5938 21.1094 27.1172C20.6641 26.5938 20 26.2656 19.2578 26.2656C18.7969 26.2656 18.3672 26.3984 17.9922 26.6172V24.6641H29.0938C29.4141 24.6641 29.6797 24.3984 29.6797 24.0781C29.6797 23.7578 29.4141 23.4922 29.0938 23.4922H18.0078C18.0078 22.9219 17.8672 22.375 17.5234 21.9141C17.0703 21.3047 16.3359 20.9375 15.5703 20.9375C14.8125 20.9375 14.0781 21.3047 13.6172 21.9141C13.2734 22.375 13.1328 22.9219 13.1328 23.4922H4.6875V6.01562H35.3125V23.5H31.4297C31.1094 23.5 30.8438 23.7656 30.8438 24.0859C30.8438 24.4062 31.1094 24.6719 31.4297 24.6719H35.8984C36.2188 24.6719 36.4844 24.4062 36.4844 24.0859V5.42969C36.4844 5.10938 36.2188 4.84375 35.8984 4.84375H4.10156C3.78125 4.84375 3.51562 5.10938 3.51562 5.42969V24.0859C3.51562 24.4062 3.78125 24.6719 4.10156 24.6719H13.1406V28.7422H11.9141C10.8438 28.7422 9.875 29.4766 9.57812 30.5078C9.57031 30.5391 9.49219 30.9219 9.5 30.9219H3.98438C2.42969 30.9219 1.17188 29.6562 1.17188 28.1094V5.3125C1.17188 3.75781 2.4375 2.5 3.98438 2.5H9.10156C9.42188 2.5 9.6875 2.23438 9.6875 1.91406C9.6875 1.59375 9.42188 1.32812 9.10156 1.32812H3.98438C1.78906 1.32812 0 3.11719 0 5.3125V28.1094C0 30.3047 1.78906 32.0938 3.98438 32.0938H9.65625ZM14.3125 23.3828C14.3125 22.6953 14.8906 22.1172 15.5781 22.1172C16.2578 22.1172 16.8438 22.7031 16.8438 23.3828V28.7109C16.8438 29.0312 17.1094 29.2969 17.4297 29.2969C17.75 29.2969 18.0156 29.0312 18.0156 28.7109C18.0156 28.0234 18.5938 27.4453 19.2812 27.4453C19.9688 27.4453 20.5469 28.0234 20.5469 28.7109C20.5469 29.0312 20.8125 29.2969 21.1328 29.2969C21.4531 29.2969 21.7188 29.0312 21.7188 28.7109C21.7188 28.0234 22.2969 27.4453 22.9844 27.4453C23.6719 27.4453 24.25 28.0234 24.25 28.7109C24.25 29.0312 24.5156 29.2969 24.8359 29.2969C25.1562 29.2969 25.4219 29.0312 25.4219 28.7109C25.4219 28.0234 26 27.4453 26.6875 27.4453C27.3672 27.4453 27.9531 28.0234 27.9531 28.7109V37.4375H14.3125V23.3828ZM11.9141 29.9141H13.1406V32.4375H11.9141C11.2344 32.4375 10.6484 31.8516 10.6484 31.1719C10.6484 30.4844 11.2188 29.9141 11.9141 29.9141Z" fill="white"/>
<path d="M30.9609 12.7813C32.2891 12.7813 33.3672 11.7031 33.3672 10.375C33.3672 9.04688 32.2891 7.96875 30.9609 7.96875C29.5547 7.96875 28.4141 9.25781 28.5781 10.6562L23.8594 15.7812C23.8281 15.7812 23.6328 15.7813 23.5625 15.7891L18.9844 11.3125C18.9844 11.2578 18.9922 11.2109 18.9922 11.1563C18.9922 9.82813 17.9141 8.75 16.5859 8.75C15.2578 8.75 14.1797 9.82813 14.1797 11.1563C14.1797 11.1641 14.1797 11.1719 14.1797 11.1719L9.74219 15.0312C8.3125 14.8203 6.98438 15.9609 6.98438 17.4062C6.98438 18.7344 8.0625 19.8125 9.39062 19.8125C10.7187 19.8125 11.7969 18.7344 11.7969 17.4062C11.7969 17.3984 11.7969 17.3906 11.7969 17.3906L16.2344 13.5312C16.3516 13.5469 16.4688 13.5547 16.5859 13.5547C16.6562 13.5547 16.7266 13.5547 16.7969 13.5469L21.375 18.0234C21.375 18.0781 21.3672 18.125 21.3672 18.1797C21.3672 19.5078 22.4453 20.5859 23.7734 20.5859C25.1016 20.5859 26.1797 19.5078 26.1797 18.1797C26.1797 18.0859 26.1719 17.9922 26.1641 17.8984L30.8828 12.7734C30.8984 12.7812 30.9297 12.7813 30.9609 12.7813ZM9.39844 18.6406C8.71875 18.6406 8.16406 18.0859 8.16406 17.4062C8.16406 16.7266 8.71875 16.1719 9.39844 16.1719C10.0625 16.1719 10.6328 16.7344 10.6328 17.4062C10.625 18.0859 10.0703 18.6406 9.39844 18.6406ZM11.4375 16.1484L11.4297 16.1406C11.2891 15.9219 11.125 15.7266 10.9219 15.5625L14.5312 12.4219L14.5391 12.4297C14.6719 12.6484 14.8438 12.8438 15.0469 13.0078L11.4375 16.1484ZM17.7578 11.5156C17.6016 12.0078 17.1172 12.3906 16.5859 12.3906C15.9219 12.3906 15.3516 11.8281 15.3516 11.1563C15.3516 10.4766 15.9062 9.92188 16.5859 9.92188C17.3828 9.92969 18.0078 10.7422 17.7578 11.5156ZM22.3438 16.2656C22.1328 16.4219 21.9531 16.6094 21.8047 16.8203L18.0078 13.1016L18.0156 13.0938C18.2266 12.9375 18.4063 12.75 18.5547 12.5391L22.3438 16.2656C22.3438 16.2578 22.3438 16.2578 22.3438 16.2656ZM23.7734 19.4219C23.0938 19.4219 22.5391 18.8672 22.5391 18.1875C22.5391 17.5234 23.1016 16.9531 23.7734 16.9531C24.4453 16.9531 25.0078 17.5156 25.0078 18.1875C25 18.8672 24.4453 19.4219 23.7734 19.4219ZM25.6641 16.7109C25.5078 16.5078 25.3125 16.3281 25.0938 16.1875C25.0938 16.1875 25.0859 16.1875 25.0859 16.1797L29.0625 11.8516C29.0703 11.8594 29.0703 11.8672 29.0781 11.8672C29.2344 12.0625 29.4219 12.2422 29.6406 12.375L25.6641 16.7109ZM30.6875 11.5781C30.1484 11.4453 29.7266 10.9453 29.7266 10.3828C29.7266 9.70312 30.2812 9.14844 30.9609 9.14844C31.6406 9.14844 32.1953 9.70312 32.1953 10.3828C32.1875 11.1484 31.4375 11.7578 30.6875 11.5781Z" fill="white"/>
</svg>
