<svg width="51" height="51" viewBox="0 0 51 51" fill="none" xmlns="http://www.w3.org/2000/svg">
<path d="M43.5691 28.0125H41.4727C43.1494 24.5681 44.264 21.3182 44.264 18.7641C44.264 16.9397 44.0027 15.1358 43.4869 13.4031C43.3606 12.9789 42.9144 12.7375 42.4896 12.8634C42.0652 12.9898 41.8235 13.4361 41.9498 13.8606C42.4214 15.4448 42.6604 17.0946 42.6604 18.7641C42.6604 27.2598 28.636 45.0583 25.5 48.9315C22.3639 45.0583 8.33953 27.2599 8.33953 18.7641C8.33953 9.30182 16.0376 1.60371 25.4999 1.60371C31.9972 1.60371 37.8629 5.20469 40.8085 11.0014C41.0092 11.3963 41.4918 11.5536 41.8867 11.353C42.2814 11.1523 42.4389 10.6696 42.2383 10.2748C40.6925 7.23264 38.3447 4.6658 35.4485 2.85132C32.4707 0.986133 29.0305 0 25.4999 0C15.6997 0 7.6315 7.55238 6.80664 17.1424C4.00433 17.454 1.8175 19.836 1.8175 22.7201V24.0032C1.8175 27.0982 4.33563 29.6164 7.43069 29.6164H10.3398C12.0239 32.8183 14.1089 36.119 16.1703 39.132H8.07208C4.97701 39.132 2.45889 41.6502 2.45889 44.7452V45.3867C2.45909 48.4819 4.97721 51 8.07228 51H25.2861C25.7185 51 26.2508 50.5675 26.5141 50.2293C28.1195 48.1666 30.5289 45.2645 33.7228 40.7264C33.7609 40.732 33.7998 40.7358 33.8395 40.7358H43.5691C46.6641 40.7358 49.1823 38.2176 49.1823 35.1226V33.6257C49.1824 30.5307 46.6641 28.0125 43.5691 28.0125ZM7.43079 28.0125C5.21996 28.0125 3.42132 26.214 3.42132 24.0031V22.72C3.42132 20.7463 4.85529 19.1022 6.73592 18.7721C6.73831 21.3249 7.85214 24.5715 9.52717 28.0124H7.43079V28.0125ZM8.07228 49.3962C5.86145 49.3962 4.0628 47.5976 4.0628 45.3867V44.7452C4.0628 42.5344 5.86135 40.7358 8.07228 40.7358H17.2838C19.947 44.5193 22.4379 47.693 23.8094 49.3961H8.07228V49.3962ZM47.5785 35.1227C47.5785 37.3335 45.78 39.1321 43.5691 39.1321H34.8293C36.8909 36.119 38.9759 32.8184 40.6599 29.6165H43.5691C45.7799 29.6165 47.5785 31.415 47.5785 33.6259V35.1227Z" fill="#427C8A"/>
<path d="M25.5 4.06274C17.3937 4.06274 10.7987 10.6578 10.7987 18.764C10.7987 20.1478 10.991 21.5176 11.37 22.8352C11.4925 23.2608 11.9369 23.5069 12.3623 23.3843C12.7878 23.2618 13.0336 22.8175 12.9113 22.392C12.5736 21.2184 12.4025 19.9978 12.4025 18.764C12.4025 11.542 18.278 5.66656 25.5 5.66656C32.7219 5.66656 38.5974 11.542 38.5974 18.764C38.5974 25.986 32.7219 31.8615 25.5 31.8615C20.6946 31.8615 16.2822 29.2361 13.9847 25.0101C13.7732 24.621 13.2864 24.4769 12.8973 24.6886C12.5081 24.9 12.3643 25.3869 12.5757 25.776C15.154 30.5189 20.1064 33.4652 25.5 33.4652C33.6062 33.4652 40.2012 26.8702 40.2012 18.764C40.2012 10.6578 33.6062 4.06274 25.5 4.06274Z" fill="#427C8A"/>
<path d="M34.9088 11.5471H16.0912C15.6482 11.5471 15.2893 11.906 15.2893 12.349V26.0345C15.2893 26.4775 15.6482 26.8363 16.0912 26.8363H34.9088C35.3517 26.8363 35.7106 26.4775 35.7106 26.0345V12.349C35.7106 11.906 35.3517 11.5471 34.9088 11.5471ZM21.8113 13.1508H24.4843V17.5344H21.8113V13.1508ZM29.8302 25.2326H16.893V13.1508H20.2075V18.3364C20.2075 18.7793 20.5664 19.1382 21.0094 19.1382H25.2861C25.7291 19.1382 26.088 18.7793 26.088 18.3364V13.1508H29.8301V25.2326H29.8302ZM34.1069 25.2326H31.434V13.1508H34.1069V25.2326Z" fill="#427C8A"/>
<path d="M28.066 20.5283H18.8711C18.4281 20.5283 18.0692 20.8872 18.0692 21.3302C18.0692 21.7731 18.4281 22.132 18.8711 22.132H28.066C28.509 22.132 28.8679 21.7731 28.8679 21.3302C28.8679 20.8872 28.509 20.5283 28.066 20.5283Z" fill="#427C8A"/>
<path d="M28.066 22.8806H18.8711C18.4281 22.8806 18.0692 23.2395 18.0692 23.6825C18.0692 24.1254 18.4281 24.4843 18.8711 24.4843H28.066C28.509 24.4843 28.8679 24.1254 28.8679 23.6825C28.8679 23.2395 28.509 22.8806 28.066 22.8806Z" fill="#427C8A"/>
</svg>
